<svg width="93" height="88" fill="none" xmlns="http://www.w3.org/2000/svg"><circle opacity=".6" cx="49" cy="44" r="44" fill="#ED4E31"/><g clip-path="url(#clip0)"><path d="M40 35.768c-5.5 0-11-.177-16.462-.53a3.138 3.138 0 01-2.881-2.555 55.028 55.028 0 01-.831-13.71 10.116 10.116 0 019.707-9.45 255.56 255.56 0 0120.934 0 10.116 10.116 0 019.707 9.45 55.03 55.03 0 01-.83 13.71 3.138 3.138 0 01-2.882 2.555c-5.462.353-10.962.53-16.462.53zm-13.563-6.644c9.011.491 18.115.491 27.126 0a48.61 48.61 0 00.349-9.74 3.851 3.851 0 00-3.703-3.59 249.419 249.419 0 00-20.418 0 3.851 3.851 0 00-3.702 3.59 48.523 48.523 0 00.348 9.74z" fill="#F2C56F"/><path d="M28 9.702a10.11 10.11 0 00-8.174 9.271 55.065 55.065 0 00.832 13.71 3.137 3.137 0 002.88 2.554c.255.016.508.033.762.047a3.492 3.492 0 01-.855-1.765 64.329 64.329 0 01-.83-14.841c.237-3.92 2.353-7.252 5.384-8.976z" fill="#F6D698"/><path d="M76.76 57.995a153.59 153.59 0 01-.919 17.793 8.907 8.907 0 01-8.317 7.912 457.003 457.003 0 01-55.047 0 8.907 8.907 0 01-8.318-7.912 153.61 153.61 0 01-.92-17.793 153.83 153.83 0 01.92-15.8 8.904 8.904 0 018.317-7.913 456.385 456.385 0 0155.048 0 8.904 8.904 0 018.317 7.913 153.68 153.68 0 01.92 15.8z" fill="#FACAC1"/><path d="M17.502 83.976a528.65 528.65 0 01-5.026-.276 8.907 8.907 0 01-8.317-7.913 153.349 153.349 0 010-33.592 8.904 8.904 0 018.317-7.913c1.674-.1 3.349-.193 5.023-.276a9.408 9.408 0 00-4.84 7.227 162.116 162.116 0 000 35.514 9.407 9.407 0 004.843 7.229z" fill="#F17A65"/><path d="M76.76 57.995a7.05 7.05 0 01-2.466 1.604c-7.123 2.74-20.677 7.37-34.293 8.866-13.616-1.497-27.17-6.127-34.294-8.866a7.048 7.048 0 01-2.467-1.604c.035-5.267.34-10.534.92-15.8a8.904 8.904 0 018.317-7.913 456.385 456.385 0 0155.047 0 8.904 8.904 0 018.318 7.913 154.11 154.11 0 01.919 15.8z" fill="#F17A65"/><path d="M74.294 56.087c-7.123 2.74-20.678 7.37-34.294 8.866-9.777-1.075-19.52-3.764-26.876-6.21-2.888-.96-5.41-1.884-7.418-2.656a7.087 7.087 0 01-4.459-7.646c1.117-7.666 2.794-13.59 4.07-17.358a7.834 7.834 0 016.54-5.267 357.06 357.06 0 019.46-.946c5.794-.5 12.56-.932 18.683-.932 10.015 0 21.754 1.153 28.143 1.878a7.833 7.833 0 016.54 5.267c1.276 3.767 2.953 9.692 4.07 17.358a7.087 7.087 0 01-4.46 7.646z" fill="#FACAC1"/><path d="M13.124 58.743c-2.888-.96-5.41-1.884-7.418-2.656a7.087 7.087 0 01-4.459-7.646c1.117-7.666 2.794-13.59 4.07-17.358a7.834 7.834 0 016.54-5.267c2.484-.283 5.775-.628 9.46-.946-9.46.946-13.386 28.68-8.193 33.873z" fill="#F17A65"/><path d="M42.977 71.41c-1.985.157-3.97.157-5.954 0a2.874 2.874 0 01-2.637-2.709 85.39 85.39 0 010-9.432 2.874 2.874 0 012.637-2.71 37.769 37.769 0 015.954 0 2.874 2.874 0 012.637 2.71 85.44 85.44 0 010 9.432 2.874 2.874 0 01-2.637 2.71z" fill="#fff"/><path d="M38.407 71.494a36.972 36.972 0 01-1.385-.083 2.875 2.875 0 01-2.636-2.71 85.197 85.197 0 010-9.433 2.874 2.874 0 012.636-2.71c.46-.035.922-.064 1.383-.083a3.25 3.25 0 00-1.016 2.19 96.311 96.311 0 000 10.64c.047.86.428 1.634 1.018 2.19z" fill="#fff"/><path d="M79.91 48.273c-1.139-7.823-2.868-13.87-4.119-17.567a9.04 9.04 0 00-7.517-6.054c-1.84-.208-4.185-.459-6.833-.708a55.65 55.65 0 00-.098-5.046 11.277 11.277 0 00-3.384-7.347 11.322 11.322 0 00-7.444-3.197 256.49 256.49 0 00-20.226-.031 1.172 1.172 0 00.089 2.342c6.648-.253 13.39-.243 20.04.031 2.222.09 4.32.99 5.905 2.534a8.935 8.935 0 012.681 5.821c.102 1.545.133 3.115.098 4.681a330.12 330.12 0 00-3.927-.318 49.383 49.383 0 00-.096-4.105 5.02 5.02 0 00-4.822-4.684 250.246 250.246 0 00-20.514 0 5.019 5.019 0 00-4.822 4.684 49.295 49.295 0 00-.096 4.105c-1.348.1-2.663.208-3.927.318a53.229 53.229 0 01.097-4.68 8.928 8.928 0 015.25-7.57 1.172 1.172 0 00-.961-2.138 11.268 11.268 0 00-6.627 9.554 55.605 55.605 0 00-.098 5.047c-2.648.249-4.993.499-6.834.707a9.04 9.04 0 00-7.516 6.054c-1.25 3.696-2.98 9.744-4.12 17.567a8.235 8.235 0 002.03 6.742 155.12 155.12 0 00.877 20.899 10.047 10.047 0 008.68 8.881l1.022 2.36a1.172 1.172 0 102.15-.933l-.54-1.247a457.628 457.628 0 0051.383 0l-.54 1.248a1.172 1.172 0 002.15.932l1.023-2.36a10.047 10.047 0 008.68-8.881 155.109 155.109 0 00.876-20.9 8.233 8.233 0 002.03-6.74zm-52.65-28.81a2.68 2.68 0 012.58-2.496 247.86 247.86 0 0120.32 0 2.68 2.68 0 012.58 2.495c.083 1.258.115 2.526.095 3.786-4.239-.283-8.69-.481-12.835-.481-4.145 0-8.596.198-12.836.48a47.31 47.31 0 01.095-3.785zm47.414 56.195a7.713 7.713 0 01-7.222 6.87 457.177 457.177 0 01-54.904 0 7.713 7.713 0 01-7.222-6.87 152.977 152.977 0 01-.899-18.866c.277.143.563.274.86.389 5.478 2.107 16.252 5.888 27.806 7.95a86.36 86.36 0 00.123 3.634 4.057 4.057 0 003.715 3.813 39.029 39.029 0 006.139 0 4.057 4.057 0 003.714-3.813c.066-1.207.107-2.42.123-3.635a132.056 132.056 0 009.74-2.139 1.172 1.172 0 10-.586-2.269c-3.137.81-6.21 1.49-9.155 2.027a86.116 86.116 0 00-.122-3.546 4.057 4.057 0 00-3.715-3.813 39.057 39.057 0 00-6.138 0 4.057 4.057 0 00-3.714 3.813 86.46 86.46 0 00-.123 3.546c-11.206-2.043-21.631-5.704-26.965-7.756a5.884 5.884 0 01-3.72-6.382c1.114-7.649 2.801-13.55 4.02-17.153a6.687 6.687 0 015.56-4.477c6.17-.699 18.014-1.87 28.011-1.87 9.998 0 21.84 1.171 28.01 1.87a6.687 6.687 0 015.561 4.476c1.22 3.604 2.907 9.505 4.02 17.154a5.884 5.884 0 01-3.72 6.382 171.006 171.006 0 01-13.349 4.503 1.172 1.172 0 00.655 2.25 173.405 173.405 0 0013.536-4.566c.297-.114.583-.245.86-.389a153 153 0 01-.899 18.867zm-31.79-5.416a36.727 36.727 0 01-5.769 0 1.706 1.706 0 01-1.559-1.606 84.618 84.618 0 010-9.303 1.706 1.706 0 011.56-1.606 36.723 36.723 0 015.769 0 1.706 1.706 0 011.559 1.606c.17 3.086.17 6.216 0 9.303a1.706 1.706 0 01-1.56 1.606z" fill="#000"/></g><defs><clipPath id="clip0"><path fill="#fff" transform="translate(0 8)" d="M0 0h80v80H0z"/></clipPath></defs></svg>