<svg width="93" height="88" fill="none" xmlns="http://www.w3.org/2000/svg"><circle opacity=".6" cx="49" cy="44" r="44" fill="#ED4E31"/><g clip-path="url(#clip0)"><path d="M32.96 62.9c14.818 0 26.83-12.013 26.83-26.83 0-14.816-12.012-26.828-26.83-26.828-14.816 0-26.827 12.012-26.827 26.828H32.96V62.9z" fill="#FACAC1"/><path d="M43.12 72.229h-7.76a2.379 2.379 0 00-2.38 2.379v12.15H45.5v-12.15a2.379 2.379 0 00-2.379-2.379z" fill="#fff"/><path d="M39.324 72.23a2.377 2.377 0 00-2.378 2.378v12.15h-3.965v-12.15a2.378 2.378 0 012.378-2.378h3.965z" fill="#fff"/><path d="M59.784 41.609h-7.76a2.379 2.379 0 00-2.38 2.379v42.77h12.519v-42.77a2.379 2.379 0 00-2.379-2.38z" fill="#F6D698"/><path d="M55.989 41.61a2.378 2.378 0 00-2.378 2.377v42.77h-3.964v-42.77a2.377 2.377 0 012.378-2.378h3.964z" fill="#F2C56F"/><path d="M76.45 59.345h-7.76a2.379 2.379 0 00-2.38 2.379v25.034h12.52V61.724a2.379 2.379 0 00-2.379-2.379z" fill="#F17A65"/><path d="M72.654 59.346a2.377 2.377 0 00-2.378 2.378v25.034h-3.965V61.724a2.379 2.379 0 012.38-2.379h3.963z" fill="#F06950"/><path d="M28 67.86V41.03H1.172c0 14.817 12.01 26.83 26.828 26.83z" fill="#F17A65"/><path d="M43.12 71.057h-7.76a3.555 3.555 0 00-3.551 3.55v12.15c0 .648.524 1.173 1.171 1.173H45.5c.647 0 1.172-.525 1.172-1.172v-12.15a3.554 3.554 0 00-3.55-3.55zm1.207 14.53H34.152v-10.98a1.21 1.21 0 011.207-1.207h7.761c.666 0 1.207.542 1.207 1.207v10.978z" fill="#000"/><path d="M60.605 40.534a28.22 28.22 0 00.356-4.464 27.841 27.841 0 00-5.048-16.018l1.914-3.41h15.85a1.172 1.172 0 100-2.343H57.141a1.17 1.17 0 00-1.022.598l-1.76 3.136C49.219 11.945 41.534 8.07 32.96 8.07a27.948 27.948 0 00-18.625 7.094 1.172 1.172 0 001.56 1.75 25.603 25.603 0 0117.065-6.5c8.173 0 15.465 3.841 20.167 9.813l-4.786 8.528a1.172 1.172 0 002.044 1.147l4.241-7.558a25.502 25.502 0 013.99 13.726c0 1.469-.126 2.933-.372 4.367h-6.222a3.554 3.554 0 00-3.55 3.55v12.52a25.33 25.33 0 01-14.34 5.195V36.07c0-.647-.525-1.172-1.172-1.172H7.33c.239-5.412 2.134-10.492 5.518-14.757a1.172 1.172 0 10-1.836-1.457C7.052 23.674 4.96 29.686 4.96 36.07c0 .647.524 1.172 1.172 1.172h25.656V62.9c0 .647.525 1.172 1.172 1.172 5.605 0 10.921-1.613 15.512-4.685v27.37c0 .648.525 1.173 1.172 1.173h12.517c.648 0 1.172-.525 1.172-1.172v-8.799a1.172 1.172 0 10-2.344 0v7.627H50.817V43.987c0-.665.541-1.206 1.206-1.206h7.761c.666 0 1.207.541 1.207 1.206v29.285a1.172 1.172 0 002.343 0V43.987a3.555 3.555 0 00-2.729-3.453z" fill="#000"/><path d="M76.45 58.173h-7.76a3.555 3.555 0 00-3.551 3.551v25.034c0 .647.524 1.172 1.172 1.172h12.518c.647 0 1.172-.525 1.172-1.172V61.724a3.555 3.555 0 00-3.55-3.55zm1.207 27.413H67.483V61.724c0-.665.541-1.207 1.206-1.207h7.761c.666 0 1.207.541 1.207 1.207v23.862zM28 39.858H1.172C.525 39.858 0 40.383 0 41.03c0 12.15 7.778 22.515 18.616 26.382l-3.243 7.032H2.765a1.172 1.172 0 100 2.344h13.357c.458 0 .873-.266 1.065-.681l3.687-7.995c2.276.6 4.664.92 7.126.92.647 0 1.172-.525 1.172-1.172V41.03c0-.647-.525-1.172-1.172-1.172zm-1.172 26.804a25.556 25.556 0 01-4.956-.715L23.3 62.85a1.172 1.172 0 00-2.128-.981l-1.57 3.406C9.917 61.911 2.853 52.9 2.37 42.202h24.458v24.46z" fill="#000"/><path d="M2.766 71.743H12.5a1.172 1.172 0 100-2.344H2.766a1.172 1.172 0 100 2.344zm59.367-59.767h11.545a1.172 1.172 0 100-2.343H62.133a1.172 1.172 0 100 2.343zm4.666 23.594c0 .647.524 1.172 1.172 1.172h8.514a1.172 1.172 0 100-2.344H67.97c-.648 0-1.172.525-1.172 1.172zm9.686 3.879H67.97a1.172 1.172 0 100 2.343h8.514a1.172 1.172 0 100-2.343zm0 5.05H67.97a1.172 1.172 0 100 2.344h8.514a1.172 1.172 0 100-2.344z" fill="#000"/></g><defs><clipPath id="clip0"><path fill="#fff" transform="translate(0 8)" d="M0 0h80v80H0z"/></clipPath></defs></svg>