<svg width="279" height="58" fill="none" xmlns="http://www.w3.org/2000/svg"><path d="M15.698 4.136h3.631l.384 8.292-4.116.277c-.458-1.544-1.083-2.632-1.877-3.265-.78-.634-1.755-.95-2.925-.95-.996 0-1.756.217-2.28.653-.512.435-.767.99-.767 1.662 0 .752.282 1.3.847 1.643.565.343 1.803.739 3.713 1.187 2.515.594 4.19 1.102 5.024 1.524a6.984 6.984 0 012.885 2.672c.713 1.147 1.07 2.559 1.07 4.235 0 1.833-.444 3.509-1.332 5.026-.888 1.517-2.146 2.698-3.773 3.543a10.982 10.982 0 01-5.125 1.266c-1.87 0-3.928-.514-6.174-1.543l-.626 1.345H.565L0 21.333l4.217-.356c.215 1.478.565 2.626 1.05 3.444.497.817 1.19 1.477 2.077 1.979.902.5 1.83.752 2.785.752 1.036 0 1.89-.317 2.562-.95.686-.634 1.03-1.399 1.03-2.296 0-.554-.149-1.042-.445-1.464-.296-.436-.74-.772-1.331-1.01-.579-.25-1.702-.574-3.37-.97-1.654-.395-2.724-.672-3.208-.83-.874-.304-1.628-.66-2.26-1.07a6.201 6.201 0 01-1.553-1.444 6.938 6.938 0 01-.969-1.94 8.118 8.118 0 01-.343-2.374c0-1.57.397-3.048 1.19-4.433.794-1.385 1.93-2.474 3.41-3.265 1.48-.805 3.121-1.207 4.924-1.207.914 0 1.795.099 2.643.296.86.198 1.795.522 2.804.97l.485-1.029zM45.851 27.21v3.424c-1.224.779-2.703 1.168-4.438 1.168-1.023 0-1.89-.178-2.603-.534-.713-.356-1.393-.944-2.038-1.762-.767.805-1.58 1.406-2.442 1.801-.86.396-1.896.594-3.107.594-1.937 0-3.477-.534-4.62-1.603-1.13-1.082-1.695-2.513-1.695-4.294 0-1.24.181-2.223.545-2.949.363-.739.968-1.379 1.816-1.92.847-.554 2.01-1.029 3.49-1.424 1.48-.396 2.448-.686 2.906-.871.686-.29 1.177-.574 1.473-.851.295-.277.49-.554.585-.831.161-.528.242-1.03.242-1.504 0-.7-.236-1.267-.706-1.702-.458-.449-1.083-.673-1.877-.673-.457 0-.773.046-.948.138-.108.066-.162.139-.162.218 0 .092.101.264.303.515.336.435.505.97.505 1.603 0 1.002-.323 1.8-.969 2.394-.632.594-1.507.89-2.623.89-1.143 0-2.058-.322-2.744-.969-.686-.66-1.03-1.524-1.03-2.592 0-.924.23-1.768.687-2.534a5.295 5.295 0 011.917-1.84c.807-.475 1.789-.825 2.946-1.049a18.716 18.716 0 013.53-.336c3.027 0 5.226.587 6.598 1.761 1.386 1.161 2.078 2.777 2.078 4.848v9.796c0 .423.108.74.323.95.283.264.612.396.989.396.363 0 .72-.086 1.07-.257zm-9.846-5.778c-.363.277-.928.6-1.695.97s-1.278.739-1.533 1.108c-.242.356-.363.91-.363 1.662 0 .7.154 1.227.464 1.584.31.343.692.514 1.15.514.551 0 1.015-.204 1.392-.613.39-.41.585-.963.585-1.663v-3.562zm11.894 9.856v-3.563c.968-.237 1.607-.54 1.917-.91.323-.383.484-1.075.484-2.078V16.98c0-.607-.121-1.03-.363-1.267-.323-.343-.969-.627-1.937-.85V11.3c1.44-.08 2.576-.218 3.41-.416a10.154 10.154 0 002.32-.89h3.834v1.959c.955-.752 1.836-1.286 2.643-1.603 1.197-.488 2.4-.732 3.611-.732 1.278 0 2.401.244 3.37.732.968.475 1.695 1.154 2.18 2.038.483.871.725 1.84.725 2.91v10.587c0 .607.135 1.049.404 1.326.269.277.753.449 1.453.514v3.563H60.71v-3.563c.619-.052 1.043-.217 1.271-.494.242-.29.364-.871.364-1.742v-8.37c0-.845-.189-1.459-.565-1.841-.364-.396-.848-.594-1.453-.594-.686 0-1.224.211-1.614.633-.377.422-.565 1.142-.565 2.157v7.797c0 .805.08 1.366.242 1.683.175.316.47.573.888.771v3.563h-11.38zm26.623-17.732v-3.384c1.25.013 2.293-.172 3.127-.554.834-.396 1.527-1.102 2.078-2.118.565-1.029.868-2.434.908-4.215h4.702v6.709h4.398v3.562h-4.398V24.44c0 1.082.181 1.821.544 2.217.377.396.962.593 1.756.593.753 0 1.708-.217 2.865-.653v3.76c-1.372.541-2.482.898-3.33 1.07a12.38 12.38 0 01-2.642.276c-1.238 0-2.361-.171-3.37-.514-1.009-.357-1.782-.838-2.32-1.445-.525-.62-.902-1.379-1.13-2.276-.148-.554-.222-1.405-.222-2.553V13.556h-2.966zm22.123-9.341c0-1.253.384-2.269 1.15-3.047C98.562.389 99.537 0 100.721 0c1.17 0 2.132.376 2.885 1.128.754.752 1.13 1.761 1.13 3.028 0 1.332-.376 2.388-1.13 3.166-.753.779-1.721 1.168-2.905 1.168-1.197 0-2.172-.383-2.926-1.148-.753-.765-1.13-1.807-1.13-3.127zm-3.35 27.073v-3.563c.996-.026 1.676-.217 2.039-.574.363-.369.545-1.048.545-2.038v-7.678c0-.91-.216-1.57-.646-1.98-.43-.408-1.076-.606-1.937-.593V11.3c1.224.013 2.34-.112 3.35-.376 1.022-.264 1.815-.574 2.38-.93h4.5v15.198c0 1.03.148 1.696.443 2 .31.302.989.48 2.038.533v3.563H93.296zm14.8 0v-3.563c.969-.237 1.608-.54 1.917-.91.323-.383.484-1.075.484-2.078V16.98c0-.607-.121-1.03-.363-1.267-.323-.343-.968-.627-1.937-.85V11.3c1.439-.08 2.576-.218 3.41-.416a10.154 10.154 0 002.32-.89h3.834v1.959c.955-.752 1.836-1.286 2.643-1.603 1.197-.488 2.401-.732 3.612-.732 1.278 0 2.401.244 3.369.732.969.475 1.695 1.154 2.179 2.038.485.871.727 1.84.727 2.91v10.587c0 .607.134 1.049.403 1.326.269.277.754.449 1.453.514v3.563h-11.239v-3.563c.619-.052 1.043-.217 1.272-.494.242-.29.363-.871.363-1.742v-8.37c0-.845-.189-1.459-.565-1.841-.363-.396-.848-.594-1.453-.594-.686 0-1.224.211-1.614.633-.377.422-.565 1.142-.565 2.157v7.797c0 .805.081 1.366.242 1.683.175.316.471.573.888.771v3.563h-11.38zM134.92 20.68c0-2.4.477-4.452 1.432-6.154.955-1.715 2.28-2.982 3.975-3.8 1.695-.831 3.558-1.247 5.589-1.247 2.22 0 4.19.475 5.912 1.425 1.735.937 3.013 2.263 3.834 3.978.834 1.702 1.251 3.582 1.251 5.64 0 2.48-.471 4.585-1.413 6.313-.941 1.728-2.28 3.008-4.015 3.84-1.735.817-3.591 1.226-5.569 1.226-2.112 0-4.042-.448-5.791-1.346-1.735-.897-3.039-2.21-3.914-3.938-.861-1.728-1.291-3.707-1.291-5.937zm8.373 0c0 3.206.276 5.258.827 6.155.417.66 1.003.99 1.756.99.82 0 1.439-.33 1.856-.99.552-.897.827-3.074.827-6.53 0-2.956-.289-4.882-.867-5.78-.404-.646-.982-.969-1.735-.969-.807 0-1.42.323-1.837.97-.551.884-.827 2.935-.827 6.154zm54.416 1.603h4.197c.027.647.04 1.089.04 1.326 0 2.177-.275 3.826-.827 4.948a5.823 5.823 0 01-2.421 2.553c-1.049.593-2.233.89-3.551.89-.969 0-1.843-.145-2.623-.435-.78-.29-1.587-.759-2.421-1.405-1.117.606-2.213 1.062-3.289 1.365a11.668 11.668 0 01-3.35.475c-1.708 0-3.288-.363-4.741-1.088-1.453-.74-2.563-1.795-3.329-3.167a8.944 8.944 0 01-1.13-4.373c0-1.399.276-2.652.827-3.76a9.17 9.17 0 012.199-2.85c.686-.594 1.561-1.128 2.623-1.603-1.089-1.702-1.634-3.41-1.634-5.126 0-1.9.693-3.423 2.078-4.571 1.399-1.148 3.013-1.722 4.843-1.722 1.937 0 3.531.594 4.782 1.781 1.251 1.175 1.876 2.632 1.876 4.374 0 1.28-.303 2.408-.908 3.384s-1.547 1.9-2.825 2.77c.471.937 1.07 1.973 1.796 3.108a32.26 32.26 0 002.078 2.889c.552-.752.827-1.405.827-1.96 0-.303-.141-.573-.423-.81-.283-.252-.767-.41-1.453-.476v-3.562h9.342V18.8c-.673.119-1.17.284-1.493.495-.31.211-.619.547-.928 1.01-.108.17-.585 1.075-1.433 2.71-.847 1.623-1.365 2.6-1.553 2.93.497.62.948.93 1.351.93.337 0 .612-.179.828-.535.363-.633.578-1.985.645-4.057zm-11.823-9.855c.901-.62 1.352-1.478 1.352-2.573 0-.673-.162-1.194-.485-1.563-.309-.37-.659-.554-1.049-.554a1.03 1.03 0 00-.767.336c-.201.211-.302.502-.302.871 0 .99.417 2.15 1.251 3.483zm1.109 14.13a74.092 74.092 0 01-2.28-3.206 112.51 112.51 0 01-2.219-3.641c-.834.646-1.251 1.583-1.251 2.81 0 1.082.343 2.124 1.029 3.127.686 1.002 1.601 1.503 2.744 1.503.632 0 1.291-.197 1.977-.593zm50.119-22.422h3.833l.343 10.212-4.217.197c-.336-1.913-.961-3.456-1.876-4.63-.686-.884-1.533-1.326-2.542-1.326-1.292 0-2.341.791-3.148 2.374-.793 1.57-1.19 3.807-1.19 6.71 0 2.968.423 5.257 1.271 6.866.847 1.597 1.937 2.395 3.268 2.395.7 0 1.379-.231 2.038-.693.659-.475 1.191-1.22 1.594-2.236.417-1.03.727-2.414.928-4.156l4.823.178c.027 1.636-.142 3.114-.505 4.433-.349 1.306-.834 2.401-1.452 3.285a9.107 9.107 0 01-2.301 2.276 11.055 11.055 0 01-3.006 1.445 10.84 10.84 0 01-3.39.534c-2.098 0-4.109-.554-6.033-1.662-1.923-1.122-3.409-2.758-4.459-4.908-1.049-2.15-1.573-4.605-1.573-7.362 0-2.77.531-5.277 1.594-7.52 1.062-2.256 2.522-3.951 4.378-5.086 1.856-1.148 3.746-1.722 5.67-1.722a9.53 9.53 0 012.542.356c.874.238 1.903.654 3.087 1.247l.323-1.207zm8.625 16.544c0-2.4.477-4.452 1.433-6.154.955-1.715 2.279-2.982 3.974-3.8 1.695-.831 3.558-1.247 5.589-1.247 2.22 0 4.19.475 5.912 1.425 1.735.937 3.013 2.263 3.834 3.978.834 1.702 1.251 3.582 1.251 5.64 0 2.48-.471 4.585-1.413 6.313-.941 1.728-2.28 3.008-4.015 3.84-1.735.817-3.591 1.226-5.569 1.226-2.112 0-4.042-.448-5.79-1.346-1.736-.897-3.04-2.21-3.915-3.938-.861-1.728-1.291-3.707-1.291-5.937zm8.373 0c0 3.206.276 5.258.828 6.155.417.66 1.002.99 1.755.99.82 0 1.439-.33 1.856-.99.552-.897.827-3.074.827-6.53 0-2.956-.289-4.882-.867-5.78-.404-.646-.982-.969-1.735-.969-.807 0-1.419.323-1.836.97-.552.884-.828 2.935-.828 6.154zm17.14 7.323a3.63 3.63 0 011.13-2.692c.753-.739 1.668-1.108 2.744-1.108 1.076 0 1.991.376 2.744 1.128.753.739 1.13 1.63 1.13 2.672a3.63 3.63 0 01-1.13 2.69c-.753.74-1.668 1.11-2.744 1.11-1.076 0-1.991-.37-2.744-1.11a3.63 3.63 0 01-1.13-2.69z" fill="#0A0302"/><path d="M8.838 52.888H2.882L1.649 55.85H0L5.076 44H6.66l5.091 11.85h-1.68l-1.234-2.962zm-.56-1.355L5.86 45.727l-2.418 5.806h4.836zM19.995 48.3h-4.707v7.55H13.75v-8.972h6.244V48.3zm9.188 3.115c0 .124-.01.288-.032.49h-6.885c.096.79.422 1.428.977 1.914.566.474 1.265.71 2.098.71 1.014 0 1.83-.36 2.45-1.083l.848 1.05a3.717 3.717 0 01-1.441 1.083c-.566.248-1.201.373-1.905.373-.897 0-1.692-.192-2.386-.576a4.158 4.158 0 01-1.617-1.642c-.374-.7-.56-1.49-.56-2.37 0-.869.18-1.653.544-2.353.373-.7.88-1.242 1.52-1.625a4.15 4.15 0 012.194-.593c.811 0 1.532.198 2.162.593.64.383 1.137.925 1.489 1.625.363.7.544 1.5.544 2.404zm-4.195-3.25c-.736 0-1.355.236-1.857.71-.491.474-.78 1.095-.865 1.863h5.444c-.085-.757-.379-1.372-.88-1.846-.491-.485-1.105-.728-1.842-.728zm6.9-1.287h1.537v3.809h4.836v-3.81h1.537v8.973H38.26v-3.758h-4.835v3.758h-1.537v-8.972zM49.431 48.3h-3.106v7.55h-1.537V48.3h-3.106v-1.422h7.75V48.3zm5.215 7.652c-.864 0-1.638-.198-2.321-.593a4.255 4.255 0 01-1.585-1.625c-.385-.7-.577-1.49-.577-2.37 0-.88.192-1.665.577-2.353.384-.7.912-1.242 1.585-1.625.683-.395 1.457-.593 2.321-.593.769 0 1.452.164 2.05.491a3.384 3.384 0 011.409 1.422l-1.169.796a2.671 2.671 0 00-.993-.965 2.707 2.707 0 00-1.313-.322c-.555 0-1.056.13-1.505.39a2.77 2.77 0 00-1.04 1.117c-.246.474-.369 1.021-.369 1.642 0 .632.123 1.19.369 1.676.256.474.603.84 1.04 1.1.449.26.95.39 1.505.39.48 0 .918-.108 1.313-.322a2.67 2.67 0 00.993-.965l1.169.779c-.331.62-.8 1.1-1.41 1.439-.597.327-1.28.49-2.049.49zM66.63 48.3h-3.106v7.55h-1.537V48.3H58.88v-1.422h7.75V48.3zm7.672 2.895c1.1.293 1.65 1.021 1.65 2.184 0 .79-.284 1.399-.85 1.828-.554.429-1.387.643-2.497.643h-4.083v-8.972h3.939c1.003 0 1.788.203 2.354.61.565.394.848.959.848 1.692 0 .474-.123.886-.368 1.236a2.23 2.23 0 01-.993.779zm-4.275-.457h2.306c.587 0 1.03-.113 1.329-.339.31-.226.464-.553.464-.982 0-.858-.598-1.286-1.793-1.286h-2.306v2.607zm2.466 3.86c.64 0 1.12-.108 1.441-.322.32-.215.48-.548.48-1 0-.462-.15-.806-.448-1.032-.288-.225-.747-.338-1.377-.338h-2.562v2.691h2.466zm9.819 1.354c-.843 0-1.601-.198-2.274-.593a4.256 4.256 0 01-1.585-1.625c-.373-.7-.56-1.49-.56-2.37 0-.88.187-1.665.56-2.353.385-.7.913-1.242 1.585-1.625.673-.395 1.43-.593 2.274-.593.843 0 1.596.198 2.258.593a3.997 3.997 0 011.569 1.625c.384.688.576 1.473.576 2.353 0 .88-.192 1.67-.576 2.37a4.14 4.14 0 01-1.57 1.625c-.661.395-1.414.593-2.257.593zm0-1.422c.544 0 1.03-.13 1.457-.39a2.8 2.8 0 001.025-1.117c.245-.485.368-1.038.368-1.659 0-.62-.123-1.168-.368-1.642a2.66 2.66 0 00-1.025-1.117 2.749 2.749 0 00-1.457-.39 2.83 2.83 0 00-1.473.39c-.427.26-.769.632-1.025 1.117-.245.474-.368 1.021-.368 1.642 0 .62.123 1.174.368 1.659a2.96 2.96 0 001.025 1.117c.438.26.929.39 1.473.39zm19.425-7.652v8.972H100.2V48.3h-4.788v7.55h-1.537v-8.972h7.862zm6.929 9.074c-.843 0-1.601-.198-2.274-.593a4.256 4.256 0 01-1.585-1.625c-.374-.7-.56-1.49-.56-2.37 0-.88.186-1.665.56-2.353.384-.7.913-1.242 1.585-1.625.673-.395 1.431-.593 2.274-.593s1.596.198 2.257.593a3.989 3.989 0 011.569 1.625c.385.688.577 1.473.577 2.353 0 .88-.192 1.67-.577 2.37a4.132 4.132 0 01-1.569 1.625c-.661.395-1.414.593-2.257.593zm0-1.422c.544 0 1.03-.13 1.457-.39.437-.27.779-.643 1.025-1.117.245-.485.368-1.038.368-1.659 0-.62-.123-1.168-.368-1.642a2.667 2.667 0 00-1.025-1.117 2.75 2.75 0 00-1.457-.39c-.545 0-1.036.13-1.473.39-.427.26-.769.632-1.025 1.117-.246.474-.368 1.021-.368 1.642 0 .62.122 1.174.368 1.659.256.474.598.846 1.025 1.117.437.26.928.39 1.473.39zm20.625-.102V58h-1.457v-2.15h-7.605v-8.972h1.537v7.55h4.643v-7.55h1.537v7.55h1.345zm9.982-3.013c0 .124-.01.288-.032.49h-6.885c.096.79.422 1.428.977 1.914.566.474 1.265.71 2.097.71 1.015 0 1.831-.36 2.45-1.083l.849 1.05a3.718 3.718 0 01-1.441 1.083c-.566.248-1.201.373-1.906.373-.896 0-1.691-.192-2.385-.576a4.154 4.154 0 01-1.617-1.642c-.374-.7-.561-1.49-.561-2.37 0-.869.182-1.653.545-2.353.373-.7.88-1.242 1.521-1.625.651-.395 1.382-.593 2.193-.593.812 0 1.532.198 2.162.593.64.383 1.137.925 1.489 1.625.363.7.544 1.5.544 2.404zm-4.195-3.25c-.736 0-1.355.236-1.857.71-.491.474-.779 1.095-.865 1.863h5.444c-.085-.757-.379-1.372-.88-1.846-.491-.485-1.105-.728-1.842-.728zm6.9-1.287h1.537v3.809h4.836v-3.81h1.537v8.973h-1.537v-3.758h-4.836v3.758h-1.537v-8.972zm18.888 4.537c0 .124-.011.288-.032.49h-6.885c.096.79.422 1.428.977 1.914.566.474 1.265.71 2.097.71 1.014 0 1.831-.36 2.45-1.083l.849 1.05a3.726 3.726 0 01-1.441 1.083c-.566.248-1.201.373-1.906.373-.896 0-1.692-.192-2.385-.576a4.163 4.163 0 01-1.618-1.642c-.373-.7-.56-1.49-.56-2.37 0-.869.182-1.653.544-2.353a4.09 4.09 0 011.522-1.625c.651-.395 1.382-.593 2.193-.593.811 0 1.532.198 2.162.593.64.383 1.136.925 1.489 1.625.363.7.544 1.5.544 2.404zm-4.195-3.25c-.736 0-1.356.236-1.857.71-.491.474-.779 1.095-.865 1.863h5.444c-.085-.757-.379-1.372-.881-1.846-.491-.485-1.104-.728-1.841-.728zm15.219 7.787c-.865 0-1.639-.198-2.322-.593a4.256 4.256 0 01-1.585-1.625c-.384-.7-.577-1.49-.577-2.37 0-.88.193-1.665.577-2.353.384-.7.913-1.242 1.585-1.625.683-.395 1.457-.593 2.322-.593.768 0 1.451.164 2.049.491a3.381 3.381 0 011.409 1.422l-1.169.796a2.678 2.678 0 00-.992-.965 2.708 2.708 0 00-1.313-.322c-.555 0-1.057.13-1.505.39-.438.26-.785.632-1.041 1.117-.246.474-.368 1.021-.368 1.642 0 .632.122 1.19.368 1.676.256.474.603.84 1.041 1.1.448.26.95.39 1.505.39.48 0 .918-.108 1.313-.322.394-.214.725-.536.992-.965l1.169.779c-.331.62-.8 1.1-1.409 1.439-.598.327-1.281.49-2.049.49zm13.63-9.074v8.972h-1.537V48.3h-4.788v7.55h-1.537v-8.972h7.862zm10.964 4.537c0 .124-.011.288-.032.49h-6.885c.096.79.422 1.428.977 1.914.565.474 1.265.71 2.097.71 1.014 0 1.831-.36 2.45-1.083l.848 1.05a3.71 3.71 0 01-1.441 1.083c-.565.248-1.2.373-1.905.373-.897 0-1.692-.192-2.386-.576a4.168 4.168 0 01-1.617-1.642c-.373-.7-.56-1.49-.56-2.37 0-.869.181-1.653.544-2.353.374-.7.881-1.242 1.521-1.625.651-.395 1.383-.593 2.194-.593.811 0 1.532.198 2.161.593a3.876 3.876 0 011.489 1.625c.363.7.545 1.5.545 2.404zm-4.195-3.25c-.737 0-1.356.236-1.857.71-.491.474-.78 1.095-.865 1.863h5.444c-.086-.757-.379-1.372-.881-1.846-.491-.485-1.105-.728-1.841-.728zm15.962 6.263V58h-1.457v-2.15h-7.605v-8.972h1.537v7.55h4.643v-7.55h1.537v7.55h1.345zm2.313-7.55h1.537v6.534l5.203-6.534h1.393v8.972h-1.537v-6.534l-5.187 6.534h-1.409v-8.972zm14.463-.085c1.174 0 2.071.305 2.69.914.63.61.945 1.518.945 2.726v5.417h-1.457v-1.185c-.256.418-.625.74-1.105.965-.47.214-1.03.322-1.681.322-.95 0-1.713-.243-2.29-.728-.566-.486-.848-1.123-.848-1.913s.272-1.422.816-1.896c.545-.486 1.409-.728 2.594-.728h2.434v-.322c0-.7-.192-1.236-.577-1.608-.384-.372-.95-.559-1.697-.559-.502 0-.993.09-1.473.271-.48.17-.886.4-1.217.694l-.64-1.219c.437-.372.96-.654 1.569-.846a6.075 6.075 0 011.937-.305zm-.352 7.906c.587 0 1.094-.136 1.521-.406.427-.282.737-.678.929-1.185v-1.253h-2.37c-1.302 0-1.953.463-1.953 1.388 0 .451.165.807.496 1.067.331.26.79.389 1.377.389zm14.36-7.821v8.972h-1.537V48.3h-3.651l-.096 1.998c-.053 1.207-.154 2.217-.304 3.03-.149.801-.395 1.444-.736 1.93-.342.485-.817.727-1.425.727a3.45 3.45 0 01-.945-.152l.096-1.371c.139.034.267.05.384.05.427 0 .747-.197.961-.592.213-.395.352-.863.416-1.405a38.36 38.36 0 00.176-2.32l.144-3.317h6.517zm3.292 0h1.537v6.534l5.204-6.534h1.393v8.972h-1.537v-6.534l-5.188 6.534h-1.409v-8.972zm15.137 9.074c-.865 0-1.639-.198-2.322-.593a4.249 4.249 0 01-1.585-1.625c-.385-.7-.577-1.49-.577-2.37 0-.88.192-1.665.577-2.353.384-.7.912-1.242 1.585-1.625.683-.395 1.457-.593 2.322-.593.768 0 1.451.164 2.049.491a3.387 3.387 0 011.409 1.422l-1.169.796a2.673 2.673 0 00-.993-.965 2.702 2.702 0 00-1.312-.322c-.556 0-1.057.13-1.506.39a2.77 2.77 0 00-1.04 1.117c-.246.474-.369 1.021-.369 1.642 0 .632.123 1.19.369 1.676.256.474.603.84 1.04 1.1.449.26.95.39 1.506.39.48 0 .918-.108 1.312-.322.395-.214.726-.536.993-.965l1.169.779c-.331.62-.801 1.1-1.409 1.439-.598.327-1.281.49-2.049.49zm11.983-7.652h-3.106v7.55h-1.537V48.3h-3.106v-1.422h7.749V48.3zm4.918-1.507c1.175 0 2.071.305 2.69.914.63.61.945 1.518.945 2.726v5.417h-1.457v-1.185a2.5 2.5 0 01-1.105.965c-.469.214-1.03.322-1.681.322-.95 0-1.713-.243-2.29-.728-.565-.486-.848-1.123-.848-1.913s.272-1.422.816-1.896c.545-.486 1.409-.728 2.594-.728h2.434v-.322c0-.7-.192-1.236-.577-1.608-.384-.372-.95-.559-1.697-.559-.501 0-.992.09-1.473.271-.48.17-.886.4-1.217.694l-.64-1.219a4.462 4.462 0 011.569-.846 6.075 6.075 0 011.937-.305zm-.352 7.906c.587 0 1.094-.136 1.521-.406.427-.282.737-.678.929-1.185v-1.253h-2.37c-1.302 0-1.953.463-1.953 1.388 0 .451.165.807.496 1.067.331.26.79.389 1.377.389z" fill="#969696"/></svg>