<svg width="93" height="88" fill="none" xmlns="http://www.w3.org/2000/svg"><circle opacity=".6" cx="49" cy="44" r="44" fill="#ED4E31"/><g clip-path="url(#clip0)"><path d="M41.663 64.092H4.598a3.426 3.426 0 01-3.426-3.426v-4.313a3.426 3.426 0 013.426-3.426h37.065a3.426 3.426 0 013.426 3.426v4.313a3.426 3.426 0 01-3.426 3.426z" fill="#FACAC1"/><path d="M11.73 64.093H4.6a3.427 3.427 0 01-3.428-3.426v-4.314A3.427 3.427 0 014.6 52.927h7.13a3.426 3.426 0 00-3.427 3.426v4.314a3.427 3.427 0 003.426 3.426z" fill="#F17A65"/><path d="M45.09 57.942v2.725a3.426 3.426 0 01-3.428 3.425H4.599a3.426 3.426 0 01-3.426-3.425v-2.725a3.427 3.427 0 003.426 3.427h37.064a3.427 3.427 0 003.427-3.427z" fill="#F17A65"/><path d="M48.012 52.927H10.948a3.426 3.426 0 01-3.427-3.426v-4.313a3.426 3.426 0 013.427-3.426h37.064a3.426 3.426 0 013.427 3.426v4.313a3.426 3.426 0 01-3.427 3.426z" fill="#FACAC1"/><path d="M18.079 52.928h-7.13a3.427 3.427 0 01-3.428-3.426v-4.314a3.427 3.427 0 013.428-3.426h7.13a3.427 3.427 0 00-3.426 3.426v4.314a3.426 3.426 0 003.426 3.426z" fill="#F17A65"/><path d="M51.439 46.777v2.725a3.426 3.426 0 01-3.427 3.425H10.948a3.426 3.426 0 01-3.427-3.425v-2.725a3.427 3.427 0 003.427 3.427h37.064a3.427 3.427 0 003.427-3.427z" fill="#F17A65"/><path d="M43.547 41.762H6.483a3.426 3.426 0 01-3.426-3.427v-4.312a3.426 3.426 0 013.426-3.427h37.064a3.426 3.426 0 013.427 3.427v4.312a3.426 3.426 0 01-3.427 3.427z" fill="#FACAC1"/><path d="M13.614 41.762h-7.13a3.427 3.427 0 01-3.427-3.425v-4.314a3.427 3.427 0 013.427-3.426h7.13a3.427 3.427 0 00-3.426 3.426v4.313a3.427 3.427 0 003.426 3.426z" fill="#F17A65"/><path d="M46.974 35.612v2.725a3.425 3.425 0 01-3.427 3.425H6.483a3.426 3.426 0 01-3.426-3.425v-2.725a3.427 3.427 0 003.426 3.426h37.064a3.427 3.427 0 003.427-3.426z" fill="#F17A65"/><path d="M44.788 75.257H7.723a3.426 3.426 0 01-3.426-3.426V67.52a3.426 3.426 0 013.426-3.427h37.065a3.426 3.426 0 013.426 3.427v4.312a3.426 3.426 0 01-3.426 3.426z" fill="#FACAC1"/><path d="M48.214 69.108v2.724a3.426 3.426 0 01-3.426 3.425H7.723a3.426 3.426 0 01-3.426-3.425v-2.724a3.427 3.427 0 003.426 3.426h37.064a3.427 3.427 0 003.427-3.427z" fill="#F17A65"/><path d="M14.854 75.258h-7.13a3.427 3.427 0 01-3.427-3.426v-4.313a3.427 3.427 0 013.428-3.426h7.13a3.426 3.426 0 00-3.427 3.426v4.313a3.427 3.427 0 003.426 3.426z" fill="#F17A65"/><path d="M42.444 86.423H5.38a3.426 3.426 0 01-3.427-3.427v-4.312a3.426 3.426 0 013.427-3.426h37.064a3.426 3.426 0 013.426 3.426v4.313a3.426 3.426 0 01-3.426 3.426z" fill="#FACAC1"/><path d="M45.87 80.273v2.725a3.426 3.426 0 01-3.426 3.425H5.38a3.426 3.426 0 01-3.427-3.425v-2.725a3.427 3.427 0 003.427 3.426h37.064a3.427 3.427 0 003.426-3.426z" fill="#F17A65"/><path d="M12.51 86.423H5.38a3.427 3.427 0 01-3.427-3.426v-4.313a3.427 3.427 0 013.428-3.426h7.13a3.427 3.427 0 00-3.426 3.426v4.313a3.427 3.427 0 003.425 3.426z" fill="#F17A65"/><path d="M56.87 86.423c12.127 0 21.958-9.83 21.958-21.958 0-12.128-9.83-21.959-21.958-21.959-12.128 0-21.959 9.831-21.959 21.959 0 12.127 9.831 21.958 21.959 21.958z" fill="#FACAC1"/><path d="M58.727 86.345c-.612.053-1.231.078-1.858.078-12.127 0-21.958-9.83-21.958-21.958 0-12.128 9.83-21.959 21.958-21.959.627 0 1.246.026 1.858.079-11.26.941-20.103 10.376-20.103 21.88s8.842 20.938 20.103 21.88z" fill="#F17A65"/><path d="M56.87 79.292c8.189 0 14.827-6.638 14.827-14.827 0-8.19-6.638-14.828-14.827-14.828-8.19 0-14.828 6.639-14.828 14.828s6.639 14.827 14.828 14.827z" fill="#F6D698"/><path d="M30.839 56.44V38.362h3.09c3.752 0 6.096-4.06 4.22-7.31L28.245 13.9c-1.876-3.249-6.564-3.249-8.44 0L9.9 31.052c-1.876 3.249.468 7.31 4.22 7.31h3.091V56.44a3.067 3.067 0 003.067 3.067h7.494a3.067 3.067 0 003.067-3.067z" fill="#fff"/><path d="M23.1 59.507h-2.822a3.066 3.066 0 01-3.066-3.066v-18.08H14.12c-3.752 0-6.097-4.06-4.22-7.31L19.804 13.9a4.828 4.828 0 014.22-2.435c-1.099 0-2.198.81-2.826 2.435l-6.635 17.152c-1.258 3.25.314 7.31 2.827 7.31h1.27a2.385 2.385 0 012.384 2.384V56.44c0 1.693.921 3.067 2.055 3.067z" fill="#fff"/><path d="M58.332 33.763l-.09-.335a2.323 2.323 0 011.491-2.798l3.554-1.219a2.323 2.323 0 012.997 1.596l.223.831a2.323 2.323 0 01-1.798 2.881l-3.687.722a2.323 2.323 0 01-2.69-1.678zM52.655 23.75l-.245-.244a2.323 2.323 0 01-.109-3.17l2.469-2.831a2.323 2.323 0 013.394-.116l.608.608c.952.952.898 2.51-.116 3.394l-2.832 2.468a2.323 2.323 0 01-3.17-.108zm-9.922-5.831l-.335-.09a2.323 2.323 0 01-1.679-2.69l.722-3.687a2.323 2.323 0 012.881-1.798l.831.223a2.323 2.323 0 011.597 2.997l-1.219 3.554a2.322 2.322 0 01-2.798 1.49z" fill="#FACAC1"/><path d="M73.71 48.608a1.172 1.172 0 00-1.707 1.607 20.705 20.705 0 015.653 14.25c0 11.462-9.325 20.787-20.787 20.787s-20.786-9.325-20.786-20.787 9.324-20.786 20.786-20.786c4.231 0 8.302 1.263 11.772 3.654a1.172 1.172 0 001.33-1.93 22.992 22.992 0 00-13.102-4.068c-1.908 0-3.761.234-5.536.671a4.58 4.58 0 00-3.32-1.416h-.46a4.569 4.569 0 00.592-2.255v-4.312a4.604 4.604 0 00-4.598-4.599h-4.985l-9.302-16.11a5.986 5.986 0 00-5.237-3.023h-.001a5.981 5.981 0 00-5.232 3.022L9.487 29.424H6.483a4.604 4.604 0 00-4.599 4.599v4.312a4.604 4.604 0 004.599 4.599h.46a4.57 4.57 0 00-.593 2.254v4.313c0 .819.216 1.588.593 2.255H4.598A4.603 4.603 0 000 56.352v4.313a4.605 4.605 0 003.763 4.52 4.57 4.57 0 00-.638 2.333v4.313c0 .925.276 1.787.748 2.51a4.605 4.605 0 00-3.092 4.343v4.312a4.604 4.604 0 004.599 4.599h37.064c1.74 0 3.287-.986 4.065-2.453a22.986 22.986 0 0010.36 2.454C69.623 87.596 80 77.219 80 64.465c0-5.92-2.234-11.55-6.29-15.857zM5.468 71.831v-4.313a2.257 2.257 0 012.254-2.255h26.031c.107 3.138.842 6.12 2.083 8.822H7.723a2.257 2.257 0 01-2.254-2.254zM48.35 42.96a23.262 23.262 0 00-10.797 8.795H32.01v-8.822h16.002c.114 0 .227.01.338.026zm-2.55-8.938v4.312a2.257 2.257 0 01-2.254 2.255H32.01v-1.055h1.917a5.984 5.984 0 005.236-3.024 5.973 5.973 0 00.561-4.743h3.822a2.257 2.257 0 012.255 2.255zM4.229 38.335v-4.312a2.257 2.257 0 012.255-2.255h1.84a5.969 5.969 0 00-.108 3.032 1.172 1.172 0 102.286-.515 3.62 3.62 0 01.414-2.647l9.905-17.153a3.662 3.662 0 013.203-1.85c1.339 0 2.538.692 3.207 1.852l9.904 17.151a3.663 3.663 0 010 3.702 3.664 3.664 0 01-3.206 1.851H30.84c-.647 0-1.172.525-1.172 1.172V56.44c0 1.045-.85 1.895-1.895 1.895h-7.494a1.897 1.897 0 01-1.895-1.895V38.363c0-.647-.525-1.172-1.172-1.172h-3.09c-.446 0-.875-.074-1.277-.22a1.171 1.171 0 10-.8 2.203 6.04 6.04 0 002.076.36h1.92v1.056H6.482a2.257 2.257 0 01-2.255-2.255zm4.466 11.166v-4.313a2.257 2.257 0 012.254-2.254h5.091v8.822h-5.09A2.257 2.257 0 018.693 49.5zm-6.35 11.164v-4.313A2.256 2.256 0 014.598 54.1H16.04v2.34a4.244 4.244 0 004.24 4.24h7.493a4.244 4.244 0 004.239-4.24V54.1h4.185a22.958 22.958 0 00-2.404 8.82H4.598a2.257 2.257 0 01-2.254-2.254zm40.1 24.586H5.38a2.257 2.257 0 01-2.255-2.255v-4.312a2.257 2.257 0 012.255-2.255h31.7a23.311 23.311 0 007.389 7.554 2.26 2.26 0 01-2.025 1.268z" fill="#171717"/><path d="M59.183 63.248c-.415-.12-.84-.247-1.263-.38v-5.192c1.258.185 2.01.715 2.066.757a1.172 1.172 0 001.41-1.872c-.075-.058-1.37-1.017-3.476-1.244v-1.012a1.172 1.172 0 10-2.344 0v1.087a9.319 9.319 0 00-.693.145c-1.976.49-3.45 1.997-3.758 3.84-.259 1.554.375 3.033 1.655 3.86.704.455 1.584.872 2.796 1.314v6.578c-1.217-.052-2.02-.257-3.344-.97a1.172 1.172 0 10-1.112 2.064c1.75.942 2.882 1.195 4.456 1.25v1.151a1.172 1.172 0 102.344 0v-1.226c3.087-.462 4.968-2.653 5.27-4.815.34-2.433-1.233-4.527-4.007-5.335zm-5.131-1.98c-.706-.455-.665-1.205-.615-1.506.122-.732.714-1.63 2.01-1.95l.129-.03v4.255c-.581-.242-1.105-.498-1.524-.769zm6.817 6.99c-.164 1.178-1.209 2.37-2.95 2.755V65.32c.198.06.399.119.608.18 1.666.485 2.52 1.49 2.342 2.76z" fill="#171717"/><path d="M56.87 48.465c-8.823 0-16 7.177-16 16 0 8.822 7.177 15.999 16 15.999 8.822 0 15.999-7.177 15.999-16 0-8.822-7.177-15.999-16-15.999zm0 29.655c-7.53 0-13.656-6.126-13.656-13.656S49.34 50.81 56.87 50.81s13.655 6.126 13.655 13.656S64.4 78.12 56.87 78.12zm.24-44.388l.09.334a3.508 3.508 0 004.047 2.525l3.686-.721a3.506 3.506 0 002.294-1.58 3.51 3.51 0 00.411-2.755l-.223-.831a3.507 3.507 0 00-1.733-2.18 3.507 3.507 0 00-2.776-.222l-3.554 1.219a3.506 3.506 0 00-2.242 4.21zm3.003-1.994l3.553-1.218a1.14 1.14 0 01.915.073c.284.151.487.406.57.718l.223.831a1.14 1.14 0 01-.135.908 1.14 1.14 0 01-.755.52l-3.687.722a1.154 1.154 0 01-1.333-.832l-.09-.335a1.155 1.155 0 01.739-1.387zm-8.287-7.158A3.488 3.488 0 0054.3 25.6c.818 0 1.638-.284 2.295-.857l2.832-2.468a3.507 3.507 0 001.197-2.515 3.507 3.507 0 00-1.022-2.591l-.608-.609a3.502 3.502 0 00-2.592-1.021 3.506 3.506 0 00-2.515 1.196l-2.468 2.832a3.506 3.506 0 00.163 4.768l.245.245zm1.359-3.473l2.468-2.832a1.139 1.139 0 01.87-.395c.307 0 .594.12.812.337l.609.609c.228.228.347.531.336.853a1.14 1.14 0 01-.394.829l-2.832 2.468a1.155 1.155 0 01-1.57-.054l-.245-.244a1.155 1.155 0 01-.054-1.57zm-11.09-2.146l.335.09a3.509 3.509 0 004.21-2.242l1.218-3.554a3.507 3.507 0 00-.22-2.777 3.507 3.507 0 00-2.18-1.733l-.832-.222a3.506 3.506 0 00-2.755.41 3.507 3.507 0 00-1.58 2.294l-.721 3.687a3.506 3.506 0 002.525 4.047zm-.225-3.597l.722-3.687a1.14 1.14 0 01.52-.755 1.141 1.141 0 01.907-.135l.831.222c.312.084.567.287.719.571.151.285.177.61.073.915l-1.219 3.553c-.195.57-.804.895-1.387.739l-.334-.09a1.155 1.155 0 01-.832-1.333z" fill="#171717"/></g><defs><clipPath id="clip0"><path fill="#fff" transform="translate(0 8)" d="M0 0h80v80H0z"/></clipPath></defs></svg>