<svg width="93" height="88" viewBox="0 0 93 88" fill="none" xmlns="http://www.w3.org/2000/svg">
<circle opacity="0.6" cx="49" cy="44" r="44" fill="#ED4E31"/>
<g clip-path="url(#clip0)">
<path d="M40 35.7682C34.5 35.7682 28.9999 35.5914 23.5385 35.238C22.1067 35.1453 20.9203 34.0935 20.6566 32.6832C19.8064 28.1366 19.5271 23.5239 19.826 18.9732C20.1657 13.7996 24.3388 9.73707 29.5328 9.52347C36.4785 9.23754 43.5219 9.23754 50.4672 9.52347C55.6613 9.73707 59.8344 13.7996 60.1741 18.9732C60.473 23.5241 60.1936 28.1368 59.3435 32.6832C59.0797 34.0935 57.8933 35.1453 56.4616 35.238C51.0002 35.5914 45.5 35.7682 40 35.7682ZM26.4369 29.1236C35.4483 29.615 44.5519 29.615 53.5633 29.1236C54.0064 25.8786 54.1236 22.6127 53.9116 19.3843C53.7825 17.4189 52.1908 15.8755 50.2092 15.7939C43.4349 15.5152 36.5653 15.5152 29.791 15.7939C27.8092 15.8755 26.2177 17.4189 26.0886 19.3843C25.8766 22.6127 25.9938 25.8785 26.4369 29.1236Z" fill="#F2C56F"/>
<path d="M27.9994 9.70178C23.5388 10.5648 20.1324 14.321 19.8265 18.973C19.5284 23.5232 19.8077 28.136 20.658 32.683C20.9216 34.0935 22.1079 35.1448 23.5388 35.2374C23.793 35.253 24.0455 35.2704 24.2998 35.2844C23.8684 34.8138 23.564 34.2049 23.4446 33.5193C22.5941 28.5988 22.3149 23.6048 22.6146 18.678C22.8515 14.7573 24.968 11.4262 27.9994 9.70178Z" fill="#F6D698"/>
<path d="M76.7606 57.995C76.7998 63.926 76.4923 69.8568 75.8411 75.7877C75.3672 80.0977 71.8526 83.4382 67.5237 83.7002C49.1742 84.8063 30.8262 84.8063 12.4765 83.7002C8.14762 83.4382 4.63309 80.0977 4.15919 75.7877C3.50809 69.8568 3.20044 63.926 3.23965 57.995C3.27419 52.7278 3.58012 47.4607 4.15919 42.195C4.63309 37.8835 8.14762 34.543 12.4765 34.2825C30.8261 33.1749 49.174 33.1749 67.5237 34.2825C71.8526 34.543 75.3672 37.8835 75.8411 42.195C76.4201 47.4607 76.7261 52.7278 76.7606 57.995Z" fill="#FACAC1"/>
<path d="M17.5018 83.9757C15.8261 83.8925 14.1519 83.7999 12.4763 83.6996C8.14738 83.4375 4.63285 80.0971 4.15895 75.7871C2.92879 64.5889 2.92879 53.391 4.15895 42.1946C4.63285 37.883 8.14738 34.5425 12.4763 34.2821C14.1504 34.1816 15.8246 34.0891 17.4986 34.006C14.8736 35.4432 13.005 38.0949 12.6597 41.2329C11.3591 53.071 11.3591 64.9093 12.6597 76.7474C13.0049 79.8868 14.8752 82.5385 17.5018 83.9757Z" fill="#F17A65"/>
<path d="M76.7609 57.995C76.0768 58.6807 75.2452 59.233 74.2944 59.5986C67.1712 62.3382 53.6165 66.9683 40.0005 68.465C26.3846 66.9682 12.8301 62.338 5.70664 59.5986C4.75586 59.233 3.9243 58.6808 3.24023 57.995C3.27477 52.7278 3.5807 47.4607 4.15977 42.195C4.63367 37.8835 8.1482 34.543 12.4771 34.2825C30.8266 33.1749 49.1746 33.1749 67.5243 34.2825C71.8532 34.543 75.3677 37.8835 75.8416 42.195C76.4204 47.4607 76.7263 52.7278 76.7609 57.995Z" fill="#F17A65"/>
<path d="M74.2939 56.0867C67.1706 58.8263 53.6159 63.4564 40 64.9532C30.2234 63.8783 20.48 61.1891 13.1244 58.743C10.2358 57.7828 7.71437 56.8586 5.70609 56.0867C2.61359 54.8975 0.768428 51.7202 1.24702 48.441C2.36421 40.7747 4.0414 34.8502 5.31702 31.083C6.2914 28.2071 8.84109 26.1578 11.8567 25.8158C14.3405 25.5333 17.6322 25.1882 21.3162 24.8697C27.1106 24.3692 33.8778 23.9377 40 23.9377C50.015 23.9377 61.7544 25.0908 68.1433 25.8158C71.1589 26.1578 73.7086 28.2069 74.683 31.083C75.9586 34.8502 77.6358 40.7747 78.753 48.441C79.2316 51.7202 77.3864 54.8974 74.2939 56.0867Z" fill="#FACAC1"/>
<path d="M13.1244 58.743C10.2358 57.7829 7.71437 56.8587 5.70608 56.0868C2.61358 54.8976 0.768428 51.7202 1.24702 48.441C2.36421 40.7748 4.0414 34.8502 5.31702 31.083C6.2914 28.2071 8.84108 26.1579 11.8567 25.8158C14.3405 25.5333 17.6322 25.1882 21.3162 24.8698C11.8566 25.8158 7.93124 53.5499 13.1244 58.743Z" fill="#F17A65"/>
<path d="M42.9773 71.4108C40.9924 71.5675 39.0076 71.5675 37.0229 71.4108C35.5904 71.2977 34.4655 70.136 34.3862 68.7013C34.2124 65.5569 34.2124 62.4127 34.3862 59.2685C34.4654 57.8338 35.5904 56.6721 37.0229 56.5589C39.0077 56.4022 40.9926 56.4022 42.9773 56.5589C44.4098 56.6721 45.5346 57.8338 45.614 59.2685C45.7877 62.4127 45.7877 65.5571 45.614 68.7013C45.5346 70.136 44.4096 71.2977 42.9773 71.4108Z" fill="white"/>
<path d="M38.407 71.4941C37.9441 71.4753 37.4827 71.447 37.0215 71.4109C35.5905 71.298 34.4655 70.1353 34.3855 68.7012C34.2113 65.5569 34.2113 62.4127 34.3855 59.2683C34.4655 57.8327 35.5905 56.6716 37.0215 56.5586C37.4827 56.5225 37.944 56.4942 38.4054 56.4755C37.817 57.0309 37.4357 57.8044 37.3887 58.6642C37.1926 62.2117 37.1926 65.7577 37.3887 69.3053C37.4359 70.1652 37.8171 70.9386 38.407 71.4941Z" fill="white"/>
<path d="M79.9108 48.2732C78.7711 40.45 77.0416 34.4022 75.791 30.706C74.6778 27.4202 71.7275 25.0439 68.2742 24.6521C66.4335 24.4436 64.0888 24.1935 61.441 23.9444C61.4842 22.2566 61.4524 20.5639 61.3433 18.8977C61.1597 16.1086 59.958 13.4997 57.9586 11.5507C55.9577 9.6041 53.3141 8.46895 50.5149 8.35426C43.8032 8.07785 36.9977 8.06738 30.2886 8.32285C29.6419 8.34754 29.1375 8.89176 29.1622 9.53848C29.1867 10.185 29.7286 10.6866 30.3777 10.6649C37.0255 10.4116 43.768 10.4222 50.4186 10.696C52.6403 10.7869 54.7377 11.6869 56.3232 13.2297C57.9067 14.7733 58.8591 16.841 59.0044 19.0513C59.1057 20.5964 59.1374 22.166 59.1017 23.7324C57.8375 23.6221 56.5225 23.5147 55.175 23.4139C55.1994 22.0483 55.1688 20.6725 55.0794 19.3094C54.9116 16.7454 52.8385 14.7316 50.2571 14.6254C46.8819 14.4863 43.431 14.4157 39.9999 14.4157C36.5688 14.4157 33.1177 14.4863 29.7427 14.6254C27.1613 14.7316 25.0882 16.7454 24.9205 19.3091C24.831 20.6719 24.8002 22.0477 24.8247 23.4139C23.4771 23.5147 22.1622 23.6221 20.8978 23.7324C20.8621 22.166 20.8938 20.5966 20.995 19.0518C21.2133 15.7418 23.2252 12.8408 26.2457 11.4811C26.8357 11.2155 27.0988 10.5218 26.8332 9.9316C26.5677 9.34145 25.8739 9.07817 25.2836 9.3441C21.4714 11.0604 18.9322 14.721 18.6566 18.8982C18.5475 20.5641 18.5158 22.2568 18.5591 23.9446C15.9113 24.1936 13.5664 24.4438 11.7255 24.6522C8.27238 25.0441 5.32222 27.4202 4.20894 30.7064C2.95831 34.4022 1.22878 40.45 0.0892515 48.2729C-0.279186 50.7963 0.511595 53.2386 2.1191 55.0149C1.93925 61.9418 2.23316 68.97 2.99613 75.9139C3.50644 80.5607 7.10378 84.1888 11.676 84.795L12.6985 87.1544C12.8902 87.5965 13.3213 87.8605 13.7742 87.8605C13.9297 87.8605 14.0878 87.8294 14.2396 87.7635C14.8335 87.5061 15.1061 86.8161 14.8488 86.2224L14.3083 84.9753C22.8377 85.4543 31.4183 85.6969 39.9997 85.6969C48.5813 85.6969 57.1621 85.4543 65.6914 84.9753L65.1508 86.223C64.8936 86.8169 65.1664 87.5068 65.76 87.7641C65.9119 87.8299 66.0699 87.861 66.2253 87.861C66.6782 87.861 67.1096 87.5968 67.3011 87.1547L68.3238 84.7949C72.8958 84.1885 76.493 80.5604 77.0033 75.9138C77.7663 68.9699 78.0602 61.9416 77.8803 55.0147C79.4883 53.2386 80.2789 50.7964 79.9108 48.2732ZM27.2591 19.4624C27.3483 18.0966 28.4577 17.0238 29.8391 16.9669C33.1822 16.8291 36.6008 16.7593 39.9999 16.7593C43.3989 16.7593 46.8175 16.8291 50.1607 16.9669C51.5421 17.0238 52.6514 18.0966 52.7407 19.4625C52.8232 20.7197 52.8546 21.9882 52.8353 23.2479C48.596 22.9652 44.1444 22.7666 39.9999 22.7666C35.8553 22.7666 31.4038 22.9652 27.1644 23.2479C27.1452 21.9877 27.1766 20.7191 27.2591 19.4624ZM74.6741 75.6582C74.2617 79.4118 71.2244 82.3013 67.4516 82.5286C49.2363 83.6285 30.7641 83.6285 12.5483 82.5286C8.77566 82.3013 5.73816 79.4119 5.32597 75.6582C4.63753 69.3918 4.33675 63.0561 4.42738 56.7918C4.70394 56.9355 4.99003 57.0664 5.28722 57.1807C10.765 59.2879 21.5386 63.0688 33.0927 65.1307C33.1086 66.3453 33.1497 67.5583 33.2164 68.7649C33.3277 70.7802 34.9244 72.4194 36.9305 72.5779C37.9488 72.6583 38.9744 72.6985 40 72.6985C41.0257 72.6985 42.0511 72.6583 43.0696 72.5779C45.0757 72.4194 46.6724 70.7802 46.7836 68.7649C46.8503 67.558 46.8914 66.3446 46.9074 65.1296C50.0355 64.5708 53.3058 63.8539 56.6469 62.9914C57.2736 62.8297 57.6503 62.1905 57.4885 61.5639C57.3267 60.9374 56.6883 60.56 56.061 60.7224C52.9236 61.5324 49.8511 62.2122 46.9063 62.7494C46.8896 61.5643 46.8488 60.3807 46.7836 59.2033C46.6724 57.188 45.0757 55.5488 43.0694 55.3904C41.0327 55.2294 38.9674 55.2293 36.9308 55.3904C34.9246 55.5488 33.3278 57.188 33.2166 59.2032C33.1514 60.3805 33.1108 61.5641 33.0939 62.7491C21.8877 60.706 11.4627 57.045 6.12863 54.9932C3.53534 53.9958 2.00566 51.3716 2.40863 48.6108C3.52285 40.9621 5.21003 35.061 6.42894 31.4579C7.25191 29.028 9.43472 27.2707 11.9896 26.9808C18.1594 26.2822 30.0028 25.1102 40.0002 25.1102C49.9975 25.1102 61.8408 26.2822 68.0105 26.9808C70.5657 27.2707 72.7485 29.028 73.5713 31.4574C74.7903 35.061 76.4777 40.9621 77.5919 48.6111C77.9947 51.3716 76.4649 53.9958 73.8719 54.993C70.8517 56.1543 66.0842 57.878 60.5221 59.4957C59.9007 59.6764 59.5435 60.3268 59.7242 60.9482C59.9049 61.5694 60.5552 61.9264 61.1766 61.7461C66.8169 60.1057 71.651 58.3579 74.7132 57.1805C75.0103 57.0663 75.2964 56.9352 75.573 56.7914C75.6631 63.0561 75.3625 69.3916 74.6741 75.6582ZM42.8847 70.2416C40.9705 70.3929 39.0292 70.3929 37.115 70.2416C36.2733 70.175 35.6032 69.4847 35.5563 68.6357C35.3857 65.5491 35.3857 62.4191 35.5563 59.3325C35.6032 58.4836 36.2735 57.7932 37.1152 57.7268C39.0291 57.5755 40.9707 57.5755 42.8846 57.7268C43.7263 57.7933 44.3966 58.4836 44.4435 59.3327C44.6141 62.4193 44.6141 65.5493 44.4435 68.6358C44.3967 69.4847 43.7266 70.175 42.8847 70.2416Z" fill="black"/>
</g>
<defs>
<clipPath id="clip0">
<rect width="80" height="80" fill="white" transform="translate(0 8)"/>
</clipPath>
</defs>
</svg>
