<svg width="93" height="88" viewBox="0 0 93 88" fill="none" xmlns="http://www.w3.org/2000/svg">
<circle opacity="0.6" cx="49" cy="44" r="44" fill="#ED4E31"/>
<g clip-path="url(#clip0)">
<path d="M32.9609 62.8997C47.7781 62.8997 59.7891 50.8872 59.7891 36.07C59.7891 21.2544 47.7781 9.24188 32.9609 9.24188C18.1438 9.24188 6.13281 21.2544 6.13281 36.07H32.9609V62.8997Z" fill="#FACAC1"/>
<path d="M43.12 72.229H35.3592C34.0455 72.229 32.9805 73.294 32.9805 74.6078V86.7578H45.4987V74.6078C45.4987 73.294 44.4337 72.229 43.12 72.229Z" fill="white"/>
<path d="M39.3242 72.2299C38.0102 72.2299 36.9461 73.2939 36.9461 74.608V86.758H32.9805V74.608C32.9805 73.2939 34.0461 72.2299 35.3586 72.2299H39.3242Z" fill="white"/>
<path d="M59.7841 41.6089H52.0233C50.7095 41.6089 49.6445 42.6739 49.6445 43.9876V86.7579H62.1628V43.9876C62.1628 42.6739 61.0978 41.6089 59.7841 41.6089Z" fill="#F6D698"/>
<path d="M55.9887 41.6094C54.6762 41.6094 53.6105 42.6734 53.6105 43.9875V86.7578H49.6465V43.9875C49.6465 42.6734 50.7105 41.6094 52.0246 41.6094H55.9887Z" fill="#F2C56F"/>
<path d="M76.4501 59.3452H68.6893C67.3755 59.3452 66.3105 60.4102 66.3105 61.724V86.7579H78.8288V61.724C78.8288 60.4102 77.7638 59.3452 76.4501 59.3452Z" fill="#F17A65"/>
<path d="M72.6543 59.3455C71.3402 59.3455 70.2762 60.4096 70.2762 61.7236V86.758H66.3105V61.7235C66.3105 60.4094 67.3762 59.3453 68.6902 59.3453H72.6543V59.3455Z" fill="#F06950"/>
<path d="M28 67.8602V41.0305H1.17188C1.17188 55.8475 13.1828 67.8602 28 67.8602Z" fill="#F17A65"/>
<path d="M43.1201 71.0573H35.3594C33.4016 71.0573 31.8086 72.6501 31.8086 74.6079V86.7579C31.8086 87.4051 32.3331 87.9297 32.9805 87.9297H45.4987C46.1461 87.9297 46.6706 87.4051 46.6706 86.7579V74.6079C46.6706 72.6501 45.078 71.0573 43.1201 71.0573ZM44.3269 85.5862H34.1523V74.608C34.1523 73.9426 34.6937 73.4012 35.3594 73.4012H43.1201C43.7856 73.4012 44.327 73.9426 44.327 74.608V85.5862H44.3269Z" fill="black"/>
<path d="M60.6052 40.5343C60.8408 39.0653 60.9611 37.5694 60.9611 36.0702C60.9611 30.1177 59.0927 24.5943 55.9133 20.0524L57.8269 16.6424H73.6775C74.3249 16.6424 74.8494 16.1177 74.8494 15.4705C74.8494 14.8233 74.3249 14.2986 73.6775 14.2986H57.1406C56.7169 14.2986 56.3261 14.5274 56.1188 14.8971L54.3589 18.0332C49.2186 11.9447 41.5344 8.07019 32.9609 8.07019C26.0794 8.07019 19.4648 10.5897 14.3356 15.1644C13.8527 15.5952 13.8103 16.336 14.2411 16.8189C14.6722 17.3021 15.413 17.3444 15.8958 16.9135C20.595 12.7222 26.6556 10.4139 32.9611 10.4139C41.1338 10.4139 48.4261 14.2552 53.1278 20.2271L48.342 28.7552C48.0253 29.3196 48.2261 30.0339 48.7905 30.3507C48.9717 30.4524 49.1686 30.5008 49.3628 30.5008C49.7728 30.5008 50.1709 30.2852 50.3858 29.9022L54.6273 22.3439C57.1527 26.3158 58.6173 31.025 58.6173 36.0702C58.6173 37.5388 58.4908 39.0033 58.2447 40.4374H52.0234C50.0661 40.4374 48.4734 42.0299 48.4734 43.9874V56.5077C44.2953 59.6886 39.3702 61.4711 34.1328 61.7022V36.0702C34.1328 35.423 33.6083 34.8983 32.9609 34.8983H7.33047C7.56953 29.4864 9.46531 24.4057 12.8492 20.1408C13.2516 19.6338 13.1666 18.8968 12.6597 18.4944C12.1527 18.0921 11.4155 18.1768 11.0133 18.6839C7.05391 23.6743 4.96094 29.6863 4.96094 36.0702C4.96094 36.7174 5.48547 37.2421 6.13281 37.2421H31.7891V62.8999C31.7891 63.5471 32.3136 64.0718 32.9609 64.0718C38.5655 64.0718 43.8822 62.4591 48.4734 59.3871V86.7577C48.4734 87.4049 48.998 87.9296 49.6453 87.9296H62.1623C62.8097 87.9296 63.3342 87.4049 63.3342 86.7577V77.9593C63.3342 77.3121 62.8097 76.7874 62.1623 76.7874C61.515 76.7874 60.9905 77.3121 60.9905 77.9593V85.5858H50.8172V43.9874C50.8172 43.3222 51.3583 42.7811 52.0234 42.7811H59.7844C60.4495 42.7811 60.9906 43.3222 60.9906 43.9874V73.2718C60.9906 73.9189 61.5152 74.4436 62.1625 74.4436C62.8098 74.4436 63.3344 73.9189 63.3344 73.2718V43.9874C63.3344 42.3124 62.168 40.9057 60.6052 40.5343Z" fill="black"/>
<path d="M76.4501 58.1733H68.6893C66.7315 58.1733 65.1387 59.7662 65.1387 61.724V86.7579C65.1387 87.405 65.6632 87.9297 66.3105 87.9297H78.829C79.4763 87.9297 80.0009 87.405 80.0009 86.7579V61.724C80.0009 59.7662 78.408 58.1733 76.4501 58.1733ZM77.6571 85.5861H67.4826V61.724C67.4826 61.0585 68.024 60.5171 68.6895 60.5171H76.4502C77.1159 60.5171 77.6573 61.0585 77.6573 61.724V85.5861H77.6571Z" fill="black"/>
<path d="M28 39.8585H1.17188C0.524531 39.8585 0 40.3832 0 41.0304C0 53.1799 7.77828 63.5454 18.6156 67.4124L15.3727 74.4443H2.76484C2.1175 74.4443 1.59297 74.969 1.59297 75.6162C1.59297 76.2634 2.1175 76.7881 2.76484 76.7881H16.1225C16.5797 76.7881 16.9952 76.5221 17.1867 76.107L20.8739 68.112C23.1502 68.7115 25.5381 69.0321 28 69.0321C28.6473 69.0321 29.1719 68.5074 29.1719 67.8603V41.0306C29.1719 40.3832 28.6473 39.8585 28 39.8585ZM26.8281 66.662C25.1281 66.5851 23.4711 66.3409 21.8722 65.9474L23.3005 62.8504C23.5714 62.2626 23.3148 61.5665 22.727 61.2954C22.1395 61.0243 21.4431 61.2812 21.1722 61.8687L19.6012 65.2751C9.91844 61.9106 2.85359 52.8993 2.37016 42.2021H26.8281V66.662Z" fill="black"/>
<path d="M2.76563 71.7428H12.5014C13.1488 71.7428 13.6733 71.2181 13.6733 70.5709C13.6733 69.9237 13.1488 69.399 12.5014 69.399H2.76563C2.11828 69.399 1.59375 69.9237 1.59375 70.5709C1.59375 71.2181 2.11844 71.7428 2.76563 71.7428Z" fill="black"/>
<path d="M62.1328 11.9763H73.6781C74.3255 11.9763 74.85 11.4516 74.85 10.8044C74.85 10.1572 74.3255 9.63251 73.6781 9.63251H62.1328C61.4855 9.63251 60.9609 10.1572 60.9609 10.8044C60.9609 11.4516 61.4856 11.9763 62.1328 11.9763Z" fill="black"/>
<path d="M66.7988 35.5701C66.7988 36.2173 67.3234 36.7419 67.9707 36.7419H76.4848C77.1321 36.7419 77.6566 36.2173 77.6566 35.5701C77.6566 34.9229 77.1321 34.3982 76.4848 34.3982H67.9707C67.3234 34.3982 66.7988 34.9227 66.7988 35.5701Z" fill="black"/>
<path d="M76.4848 39.4486H67.9707C67.3234 39.4486 66.7988 39.9733 66.7988 40.6205C66.7988 41.2677 67.3234 41.7924 67.9707 41.7924H76.4848C77.1321 41.7924 77.6566 41.2677 77.6566 40.6205C77.6566 39.9733 77.1321 39.4486 76.4848 39.4486Z" fill="black"/>
<path d="M76.4848 44.499H67.9707C67.3234 44.499 66.7988 45.0237 66.7988 45.6709C66.7988 46.3181 67.3234 46.8428 67.9707 46.8428H76.4848C77.1321 46.8428 77.6566 46.3181 77.6566 45.6709C77.6566 45.0237 77.1321 44.499 76.4848 44.499Z" fill="black"/>
</g>
<defs>
<clipPath id="clip0">
<rect width="80" height="80" fill="white" transform="translate(0 8)"/>
</clipPath>
</defs>
</svg>
