<svg width="93" height="88" viewBox="0 0 93 88" fill="none" xmlns="http://www.w3.org/2000/svg">
<circle opacity="0.6" cx="49" cy="44" r="44" fill="#ED4E31"/>
<g clip-path="url(#clip0)">
<path d="M41.6627 64.0922H4.59828C2.70594 64.0922 1.17188 62.5581 1.17188 60.6658V56.3533C1.17188 54.4609 2.70594 52.9269 4.59828 52.9269H41.6627C43.555 52.9269 45.0891 54.4609 45.0891 56.3533V60.6658C45.0891 62.5581 43.555 64.0922 41.6627 64.0922Z" fill="#FACAC1"/>
<path d="M11.7292 64.0927H4.59953C2.70609 64.0927 1.17188 62.5583 1.17188 60.6667V56.3533C1.17188 54.4616 2.70625 52.9274 4.59953 52.9274H11.7292C9.8375 52.9274 8.30328 54.4617 8.30328 56.3533V60.6667C8.30328 62.5583 9.83766 64.0927 11.7292 64.0927Z" fill="#F17A65"/>
<path d="M45.0891 57.9421V60.6671C45.0891 62.5593 43.5547 64.0921 41.6625 64.0921H4.59844C2.70625 64.0921 1.17188 62.5593 1.17188 60.6671V57.9421C1.17188 59.8343 2.70625 61.3687 4.59844 61.3687H41.6625C43.5547 61.3687 45.0891 59.8343 45.0891 57.9421Z" fill="#F17A65"/>
<path d="M48.0124 52.9271H10.9479C9.05555 52.9271 7.52148 51.3931 7.52148 49.5007V45.1882C7.52148 43.2959 9.05555 41.7618 10.9479 41.7618H48.0124C49.9048 41.7618 51.4388 43.2959 51.4388 45.1882V49.5007C51.4388 51.3931 49.9048 52.9271 48.0124 52.9271Z" fill="#FACAC1"/>
<path d="M18.0788 52.9276H10.9491C9.0557 52.9276 7.52148 51.3933 7.52148 49.5017V45.1883C7.52148 43.2965 9.05586 41.7623 10.9491 41.7623H18.0788C16.1871 41.7623 14.6529 43.2967 14.6529 45.1883V49.5017C14.6529 51.3934 16.1871 52.9276 18.0788 52.9276Z" fill="#F17A65"/>
<path d="M51.4387 46.7771V49.5021C51.4387 51.3943 49.9043 52.9271 48.0121 52.9271H10.948C9.05586 52.9271 7.52148 51.3943 7.52148 49.5021V46.7771C7.52148 48.6693 9.05586 50.2037 10.948 50.2037H48.0121C49.9043 50.2037 51.4387 48.6693 51.4387 46.7771Z" fill="#F17A65"/>
<path d="M43.5474 41.7618H6.48305C4.5907 41.7618 3.05664 40.2277 3.05664 38.3354V34.0229C3.05664 32.1306 4.5907 30.5965 6.48305 30.5965H43.5474C45.4398 30.5965 46.9738 32.1306 46.9738 34.0229V38.3354C46.9738 40.2277 45.4398 41.7618 43.5474 41.7618Z" fill="#FACAC1"/>
<path d="M13.614 41.7624H6.4843C4.59086 41.7624 3.05664 40.228 3.05664 38.3365V34.023C3.05664 32.1313 4.59102 30.5971 6.4843 30.5971H13.614C11.7223 30.5971 10.188 32.1315 10.188 34.023V38.3365C10.1879 40.228 11.7223 41.7624 13.614 41.7624Z" fill="#F17A65"/>
<path d="M46.9738 35.6118V38.3368C46.9738 40.229 45.4395 41.7618 43.5473 41.7618H6.4832C4.59102 41.7618 3.05664 40.229 3.05664 38.3368V35.6118C3.05664 37.504 4.59102 39.0384 6.4832 39.0384H43.5473C45.4395 39.0384 46.9738 37.504 46.9738 35.6118Z" fill="#F17A65"/>
<path d="M44.7877 75.2575H7.72328C5.83094 75.2575 4.29688 73.7234 4.29688 71.8311V67.5186C4.29688 65.6262 5.83094 64.0922 7.72328 64.0922H44.7877C46.68 64.0922 48.2141 65.6262 48.2141 67.5186V71.8311C48.2141 73.7234 46.68 75.2575 44.7877 75.2575Z" fill="#FACAC1"/>
<path d="M48.2141 69.1075V71.8325C48.2141 73.7247 46.6797 75.2575 44.7875 75.2575H7.72344C5.83125 75.2575 4.29688 73.7247 4.29688 71.8325V69.1075C4.29688 70.9997 5.83125 72.5341 7.72344 72.5341H44.7875C46.6797 72.5341 48.2141 70.9997 48.2141 69.1075Z" fill="#F17A65"/>
<path d="M14.8542 75.258H7.72453C5.83109 75.258 4.29688 73.7236 4.29688 71.832V67.5186C4.29688 65.6269 5.83125 64.0927 7.72453 64.0927H14.8542C12.9625 64.0927 11.4283 65.627 11.4283 67.5186V71.832C11.4283 73.7236 12.9627 75.258 14.8542 75.258Z" fill="#F17A65"/>
<path d="M42.4439 86.4229H5.37953C3.48719 86.4229 1.95312 84.8888 1.95312 82.9965V78.684C1.95312 76.7916 3.48719 75.2576 5.37953 75.2576H42.4439C44.3363 75.2576 45.8703 76.7916 45.8703 78.684V82.9965C45.8703 84.8888 44.3363 86.4229 42.4439 86.4229Z" fill="#FACAC1"/>
<path d="M45.8703 80.2728V82.9978C45.8703 84.89 44.3359 86.4228 42.4437 86.4228H5.37969C3.4875 86.4228 1.95312 84.89 1.95312 82.9978V80.2728C1.95312 82.165 3.4875 83.6994 5.37969 83.6994H42.4437C44.3359 83.6994 45.8703 82.165 45.8703 80.2728Z" fill="#F17A65"/>
<path d="M12.5105 86.4232H5.38078C3.48734 86.4232 1.95312 84.8889 1.95312 82.9973V78.6839C1.95312 76.7922 3.4875 75.2579 5.38078 75.2579H12.5105C10.6188 75.2579 9.08453 76.7923 9.08453 78.6839V82.9973C9.08453 84.8889 10.6189 86.4232 12.5105 86.4232Z" fill="#F17A65"/>
<path d="M56.8697 86.4233C68.9971 86.4233 78.8283 76.5921 78.8283 64.4647C78.8283 52.3373 68.9971 42.5061 56.8697 42.5061C44.7423 42.5061 34.9111 52.3373 34.9111 64.4647C34.9111 76.5921 44.7423 86.4233 56.8697 86.4233Z" fill="#FACAC1"/>
<path d="M58.7268 86.3447C58.1154 86.3976 57.4955 86.423 56.8694 86.423C44.7416 86.423 34.9111 76.5926 34.9111 64.4647C34.9111 52.3369 44.7416 42.5065 56.8694 42.5065C57.4957 42.5065 58.1154 42.5318 58.7268 42.5847C47.4663 43.5262 38.6236 52.961 38.6236 64.4647C38.6236 75.9685 47.4663 85.4033 58.7268 86.3447Z" fill="#F17A65"/>
<path d="M56.8696 79.2924C65.0587 79.2924 71.6973 72.6538 71.6973 64.4647C71.6973 56.2757 65.0587 49.6371 56.8696 49.6371C48.6806 49.6371 42.042 56.2757 42.042 64.4647C42.042 72.6538 48.6806 79.2924 56.8696 79.2924Z" fill="#F6D698"/>
<path d="M30.839 56.4398V38.3625H33.929C37.6806 38.3625 40.0253 34.3011 38.1493 31.0523L28.2453 13.8998C26.3695 10.6514 21.6807 10.6513 19.8048 13.8997L9.89965 31.052C8.02355 34.3009 10.3681 38.3625 14.1198 38.3625H17.2114V56.4398C17.2114 58.1336 18.5843 59.5066 20.2781 59.5066H27.7723C29.4661 59.5066 30.839 58.1334 30.839 56.4398Z" fill="white"/>
<path d="M23.0995 59.5069H20.2777C18.5846 59.5069 17.2121 58.1344 17.2121 56.4413V38.3619H14.1195C10.3677 38.3619 8.02289 34.3013 9.90039 31.0518L19.804 13.8997C20.742 12.2758 22.3832 11.4647 24.0246 11.4647C22.9251 11.4647 21.8256 12.2758 21.1982 13.8997L14.563 31.0518C13.3051 34.3013 14.8768 38.3619 17.3895 38.3619H18.6599C19.9768 38.3619 21.0445 39.4296 21.0445 40.7464V56.4396C21.0445 58.1333 21.9651 59.5069 23.0995 59.5069Z" fill="white"/>
<path d="M58.3324 33.763L58.2427 33.4284C57.9266 32.2488 58.5779 31.0256 59.7332 30.6295L63.2869 29.4111C64.5597 28.9747 65.936 29.7077 66.2843 31.0074L66.5069 31.8384C66.8552 33.1381 66.0297 34.4611 64.7093 34.7195L61.0225 35.4413C59.8241 35.6761 58.6485 34.9427 58.3324 33.763Z" fill="#FACAC1"/>
<path d="M52.6548 23.7508L52.4099 23.506C51.5464 22.6424 51.4989 21.2576 52.3014 20.3369L54.7698 17.5049C55.654 16.4905 57.2123 16.4371 58.1637 17.3887L58.7721 17.9971C59.7237 18.9487 59.6703 20.5069 58.6559 21.391L55.8239 23.8594C54.9034 24.6619 53.5185 24.6144 52.6548 23.7508Z" fill="#FACAC1"/>
<path d="M42.7325 17.9187L42.398 17.829C41.2183 17.5129 40.4847 16.3373 40.7194 15.1387L41.4411 11.452C41.6996 10.1314 43.0225 9.30607 44.3222 9.65435L45.1533 9.87701C46.453 10.2253 47.186 11.6015 46.7496 12.8744L45.5311 16.4281C45.1354 17.5836 43.9124 18.2348 42.7325 17.9187Z" fill="#FACAC1"/>
<path d="M73.7092 48.608C73.2655 48.1368 72.5238 48.1149 72.0527 48.5585C71.5816 49.0022 71.5594 49.7439 72.0033 50.215C75.6486 54.0849 77.6562 59.1455 77.6562 64.4646C77.6562 75.9269 68.3309 85.2521 56.8687 85.2521C45.4073 85.2521 36.0828 75.9269 36.0828 64.4646C36.0828 53.0032 45.4073 43.6786 56.8687 43.6786C61.1005 43.6786 65.1714 44.9422 68.6414 47.3327C69.1744 47.6997 69.9042 47.5655 70.2712 47.0325C70.6386 46.4996 70.5041 45.7699 69.9711 45.4027C66.1083 42.7416 61.5775 41.3349 56.8689 41.3349C54.9613 41.3349 53.1075 41.5686 51.333 42.0061C50.4742 41.1075 49.2841 40.5899 48.0127 40.5899H47.5523C47.9291 39.9232 48.1453 39.1541 48.1453 38.3352V34.0227C48.1453 31.4871 46.0825 29.4243 43.5469 29.4243H38.5617L29.26 13.3143C28.1664 11.4213 26.2091 10.2914 24.0233 10.2914C24.023 10.2914 24.0223 10.2914 24.022 10.2914C21.8377 10.2919 19.8816 11.4214 18.7898 13.3128L9.48672 29.4243H6.48281C3.94719 29.4243 1.88438 31.4871 1.88438 34.0227V38.3352C1.88438 40.8708 3.94719 42.9336 6.48281 42.9336H6.94297C6.56625 43.6003 6.35 44.3694 6.35 45.1883V49.5008C6.35 50.3197 6.56625 51.0888 6.94297 51.7555H4.59844C2.06281 51.7555 0 53.8177 0 56.3524V60.6649C0 62.915 1.62484 64.7914 3.76266 65.1858C3.35812 65.8702 3.125 66.6672 3.125 67.5182V71.8307C3.125 72.7561 3.40078 73.618 3.87313 74.3402C2.07547 74.9655 0.78125 76.6758 0.78125 78.6838V82.9963C0.78125 85.5319 2.84406 87.5947 5.37969 87.5947H42.4438C44.1844 87.5947 45.7311 86.6088 46.5092 85.1418C49.6275 86.7107 53.1466 87.5958 56.8687 87.5958C69.6234 87.5958 80 77.2193 80 64.4646C80 58.5457 77.7659 52.9144 73.7092 48.608ZM5.46875 71.8307V67.5182C5.46875 66.2749 6.48016 65.2635 7.72344 65.2635H33.7544C33.8614 68.4014 34.5959 71.3827 35.837 74.0854H7.72344C6.48016 74.0854 5.46875 73.0739 5.46875 71.8307ZM48.3514 42.9602C43.9155 44.7233 40.1508 47.8216 37.5536 51.7557H32.0109V42.9338H43.5469H48.0125C48.1272 42.9338 48.2402 42.9433 48.3514 42.9602ZM45.8016 34.0229V38.3354C45.8016 39.5786 44.7902 40.59 43.5469 40.59H32.0109V39.5349H33.9281C36.1139 39.5349 38.0711 38.4046 39.1639 36.5111C40.015 35.0368 40.1998 33.3404 39.725 31.768H43.5469C44.7902 31.7682 45.8016 32.7796 45.8016 34.0229ZM4.22813 38.3354V34.0229C4.22813 32.7796 5.23953 31.7682 6.48281 31.7682H8.3225C8.02797 32.7499 7.98719 33.791 8.21469 34.8004C8.35688 35.4318 8.98422 35.8283 9.61547 35.686C10.2469 35.5436 10.6434 34.9164 10.5011 34.2852C10.3584 33.6519 10.3144 32.6786 10.9148 31.6382L20.8197 14.4849C21.488 13.3271 22.6853 12.6357 24.0227 12.6353H24.0233C25.3619 12.6353 26.5609 13.3274 27.2305 14.4866L37.1338 31.6383C37.803 32.7968 37.8031 34.1805 37.1341 35.3396C36.4648 36.4989 35.2664 37.1911 33.9281 37.1911H30.8391C30.1919 37.1911 29.6672 37.7158 29.6672 38.363V56.4396C29.6672 57.4846 28.817 58.3349 27.7719 58.3349H20.2781C19.2331 58.3349 18.3828 57.4847 18.3828 56.4396V38.363C18.3828 37.7158 17.8581 37.1911 17.2109 37.1911H14.1203C13.6752 37.1911 13.2458 37.1171 12.8442 36.9711C12.2356 36.7497 11.5636 37.0636 11.3425 37.6719C11.1213 38.2802 11.435 38.9525 12.0433 39.1736C12.7023 39.4133 13.4011 39.5349 14.1203 39.5349H16.0391V40.59H10.9484H6.48281C5.23953 40.59 4.22813 39.5786 4.22813 38.3354ZM8.69375 49.501V45.1885C8.69375 43.9452 9.70516 42.9338 10.9484 42.9338H16.0391V51.7557H10.9484C9.70516 51.7557 8.69375 50.7443 8.69375 49.501ZM2.34375 60.665V56.3525C2.34375 55.1102 3.35516 54.0994 4.59844 54.0994H10.9484H16.0391V56.4396C16.0391 58.7769 17.9406 60.6786 20.2781 60.6786H27.7719C30.1092 60.6786 32.0109 58.7771 32.0109 56.4396V54.0994H36.1958C34.8442 56.7843 34.0009 59.7664 33.7919 62.9197H7.72344H4.59844C3.35516 62.9197 2.34375 61.9083 2.34375 60.665ZM42.4438 85.251H5.37969C4.13641 85.251 3.125 84.2396 3.125 82.9963V78.6838C3.125 77.4405 4.13641 76.4291 5.37969 76.4291H7.72344H37.08C38.9302 79.4782 41.4648 82.0674 44.4689 83.9828C44.1002 84.7375 43.3233 85.251 42.4438 85.251Z" fill="#171717"/>
<path d="M59.1827 63.2484C58.768 63.1276 58.3431 63.0007 57.9199 62.8682V57.6756C59.178 57.8615 59.9295 58.3913 59.9863 58.4326C60.5013 58.8174 61.2313 58.7154 61.6208 58.2026C62.0122 57.6871 61.9117 56.952 61.3964 56.5606C61.321 56.5032 60.026 55.5437 57.9199 55.3173V54.3049C57.9199 53.6577 57.3953 53.1331 56.748 53.1331C56.1006 53.1331 55.5761 53.6577 55.5761 54.3049V55.3924C55.35 55.4306 55.1191 55.4782 54.883 55.5368C52.9074 56.027 51.4324 57.5343 51.1252 59.377C50.8661 60.9313 51.5002 62.4104 52.78 63.2371C53.4839 63.6918 54.3642 64.1088 55.5761 64.5512V71.1285C54.3595 71.0773 53.5553 70.8724 52.2319 70.1593C51.6619 69.8523 50.9511 70.0654 50.6444 70.6352C50.3374 71.2049 50.5503 71.9157 51.1202 72.2227C52.8697 73.1652 54.0024 73.4182 55.5763 73.4737V74.6245C55.5763 75.2717 56.1008 75.7963 56.7481 75.7963C57.3955 75.7963 57.92 75.2717 57.92 74.6245V73.3976C61.0072 72.9365 62.8885 70.7446 63.1906 68.5834C63.5306 66.1502 61.9574 64.0562 59.1827 63.2484ZM54.0517 61.2682C53.3463 60.8126 53.3869 60.0632 53.437 59.7621C53.5591 59.0299 54.1513 58.1329 55.4472 57.8115C55.4906 57.8007 55.5331 57.7918 55.576 57.782V62.0367C54.9949 61.7949 54.4711 61.5392 54.0517 61.2682ZM60.8692 68.2588C60.7045 69.4362 59.66 70.6279 57.9197 71.0131V65.319C58.1166 65.3781 58.3178 65.4379 58.5274 65.4988C60.1931 65.9837 61.0466 66.9896 60.8692 68.2588Z" fill="#171717"/>
<path d="M56.8695 48.4651C48.0473 48.4651 40.8701 55.6424 40.8701 64.4646C40.8701 73.2868 48.0473 80.464 56.8695 80.464C65.6917 80.464 72.8689 73.2867 72.8689 64.4645C72.8689 55.6423 65.6917 48.4651 56.8695 48.4651ZM56.8695 78.1202C49.3398 78.1202 43.2139 71.9943 43.2139 64.4645C43.2139 56.9346 49.3398 50.8087 56.8695 50.8087C64.3992 50.8087 70.5251 56.9346 70.5251 64.4645C70.5251 71.9943 64.3992 78.1202 56.8695 78.1202Z" fill="#171717"/>
<path d="M57.1098 33.7316L57.1993 34.0661C57.1995 34.0661 57.1995 34.0663 57.1995 34.0663C57.6142 35.6138 59.0281 36.6564 60.5789 36.6564C60.7995 36.6564 61.0231 36.6353 61.2467 36.5914L64.9335 35.8697C65.8806 35.6844 66.7167 35.1085 67.2274 34.2899C67.7382 33.4713 67.8879 32.4672 67.6381 31.5353L67.4154 30.7039C67.1656 29.7719 66.5339 28.9772 65.6823 28.5238C64.8304 28.0702 63.8187 27.9897 62.9059 28.3025L59.3523 29.5208C57.6212 30.1145 56.6362 31.9641 57.1098 33.7316ZM60.1126 31.7381L63.6662 30.5199C63.971 30.4152 64.296 30.4411 64.5807 30.5927C64.8654 30.7442 65.0682 30.9994 65.1517 31.3108L65.3743 32.1422C65.4578 32.4536 65.4098 32.7758 65.239 33.0496C65.0682 33.3233 64.7999 33.508 64.4835 33.57L60.7967 34.2917C60.2031 34.4075 59.6195 34.0422 59.4635 33.46L59.3738 33.1253C59.2178 32.5428 59.5421 31.9336 60.1126 31.7381Z" fill="#171717"/>
<path d="M51.8264 24.5797C52.5039 25.2572 53.4004 25.5996 54.2992 25.5996C55.1171 25.5996 55.9367 25.3158 56.594 24.743L59.4261 22.2746C60.1534 21.6406 60.5895 20.7239 60.6226 19.7596C60.6557 18.7952 60.2832 17.8508 59.6011 17.1686L58.9925 16.56C58.3103 15.8778 57.3664 15.5044 56.4014 15.5385C55.4371 15.5714 54.5204 16.0077 53.8865 16.735L51.4179 19.5671C50.2157 20.9466 50.2874 23.0408 51.5814 24.3349L51.8264 24.5797ZM53.1849 21.1071L55.6535 18.275C55.8653 18.0319 56.1595 17.8919 56.482 17.881C56.4956 17.8805 56.5093 17.8802 56.5229 17.8802C56.83 17.8802 57.1171 17.9991 57.3354 18.2174L57.944 18.826C58.172 19.0539 58.2915 19.3571 58.2804 19.6794C58.2695 20.0017 58.1293 20.296 57.8864 20.5078L55.0542 22.9763C54.6001 23.3722 53.9101 23.3486 53.4837 22.9224L53.239 22.6777C52.8126 22.2513 52.789 21.5614 53.1849 21.1071Z" fill="#171717"/>
<path d="M42.0952 18.9613L42.4296 19.0508C42.729 19.131 43.0307 19.1694 43.3282 19.1694C44.7876 19.1694 46.1473 18.2463 46.6402 16.8083L47.8585 13.2547C48.1715 12.3419 48.0907 11.33 47.6373 10.4783C47.1837 9.62674 46.389 8.99502 45.4571 8.74533L44.626 8.52267C43.6938 8.27283 42.6899 8.42252 41.8712 8.93345C41.0526 9.44423 40.4768 10.2803 40.2915 11.2272L39.5698 14.9141C39.2183 16.7097 40.3277 18.4875 42.0952 18.9613ZM41.8699 15.3641L42.5916 11.6774C42.6535 11.361 42.8383 11.0925 43.1119 10.9219C43.2977 10.806 43.506 10.7466 43.7184 10.7466C43.8185 10.7466 43.9194 10.7599 44.0194 10.7866L44.8505 11.0092C45.1621 11.0927 45.4171 11.2955 45.5687 11.58C45.7204 11.8647 45.7463 12.1895 45.6416 12.4947L44.4233 16.0483C44.2279 16.6185 43.6188 16.9427 43.0363 16.787C43.0363 16.787 43.0363 16.787 43.0362 16.787L42.7018 16.6975C42.1194 16.5413 41.7541 15.9556 41.8699 15.3641Z" fill="#171717"/>
</g>
<defs>
<clipPath id="clip0">
<rect width="80" height="80" fill="white" transform="translate(0 8)"/>
</clipPath>
</defs>
</svg>
