<svg width="279" height="58" viewBox="0 0 279 58" fill="none" xmlns="http://www.w3.org/2000/svg">
<path d="M15.6976 4.13605H19.3294L19.7127 12.428L15.5967 12.705C15.1393 11.1614 14.5138 10.073 13.7202 9.4397C12.9401 8.80643 11.9648 8.4898 10.7946 8.4898C9.7992 8.4898 9.03921 8.70748 8.51461 9.14286C8.00347 9.57823 7.74789 10.1323 7.74789 10.8052C7.74789 11.5572 8.03037 12.1047 8.59532 12.4477C9.16027 12.7908 10.3978 13.1866 12.3079 13.6351C14.8232 14.2288 16.4979 14.7368 17.3319 15.1589C18.5559 15.779 19.5177 16.6696 20.2172 17.8306C20.9301 18.9784 21.2865 20.39 21.2865 22.0656C21.2865 23.8994 20.8426 25.5749 19.9549 27.0921C19.0671 28.6094 17.8094 29.7901 16.1818 30.6345C14.5542 31.4789 12.8459 31.9011 11.0569 31.9011C9.18717 31.9011 7.12914 31.3865 4.88279 30.3575L4.25731 31.7032H0.564951L0 21.3333L4.21695 20.9771C4.43217 22.4548 4.7819 23.6026 5.26615 24.4205C5.76384 25.2385 6.45658 25.8982 7.34436 26.3995C8.24559 26.9008 9.17372 27.1515 10.1288 27.1515C11.1645 27.1515 12.0187 26.8349 12.6912 26.2016C13.3772 25.5683 13.7202 24.8031 13.7202 23.906C13.7202 23.3519 13.5723 22.8637 13.2763 22.4416C12.9804 22.0062 12.5365 21.6698 11.9447 21.4323C11.3663 21.1816 10.2431 20.8584 8.57514 20.4626C6.92064 20.0668 5.85127 19.7897 5.36703 19.6314C4.4927 19.328 3.73943 18.9718 3.10723 18.5628C2.48847 18.1538 1.9706 17.6722 1.55361 17.1181C1.15008 16.564 0.827249 15.9175 0.585127 15.1787C0.356457 14.4267 0.242122 13.6351 0.242122 12.804C0.242122 11.234 0.638932 9.75634 1.43255 8.37106C2.22617 6.98578 3.3628 5.89734 4.84243 5.10575C6.32207 4.30097 7.96311 3.89858 9.76557 3.89858C10.6803 3.89858 11.5613 3.99753 12.4087 4.19542C13.2696 4.39332 14.2045 4.71655 15.2133 5.16512L15.6976 4.13605Z" fill="#0A0302"/>
<path d="M45.8514 27.2109V30.6345C44.6273 31.4129 43.1477 31.8021 41.4125 31.8021C40.3902 31.8021 39.5226 31.624 38.8097 31.2678C38.0968 30.9116 37.4175 30.3245 36.7718 29.5065C36.0051 30.3113 35.1913 30.9116 34.3304 31.3074C33.4696 31.7032 32.4338 31.9011 31.2232 31.9011C29.2862 31.9011 27.7461 31.3667 26.6027 30.2981C25.4728 29.2162 24.9079 27.7848 24.9079 26.0037C24.9079 24.7636 25.0895 23.7807 25.4526 23.055C25.8158 22.3162 26.4211 21.6764 27.2685 21.1354C28.116 20.5813 29.2795 20.1064 30.7591 19.7106C32.2388 19.3148 33.2073 19.0245 33.6646 18.8398C34.3506 18.5496 34.8416 18.2659 35.1375 17.9889C35.4334 17.7118 35.6285 17.4348 35.7226 17.1577C35.884 16.63 35.9648 16.1286 35.9648 15.6537C35.9648 14.9544 35.7294 14.3871 35.2586 13.9518C34.8012 13.5032 34.1757 13.2789 33.3821 13.2789C32.9248 13.2789 32.6087 13.3251 32.4338 13.4174C32.3262 13.4834 32.2724 13.556 32.2724 13.6351C32.2724 13.7275 32.3733 13.899 32.5751 14.1497C32.9113 14.585 33.0795 15.1194 33.0795 15.7526C33.0795 16.7553 32.7566 17.5535 32.111 18.1472C31.4788 18.7409 30.6044 19.0377 29.488 19.0377C28.3446 19.0377 27.43 18.7145 26.744 18.068C26.0579 17.4084 25.7149 16.5442 25.7149 15.4756C25.7149 14.5521 25.9436 13.7077 26.4009 12.9425C26.8717 12.1773 27.5107 11.5638 28.3177 11.102C29.1248 10.6271 30.1068 10.2775 31.2636 10.0532C32.4338 9.8289 33.6108 9.71676 34.7945 9.71676C37.821 9.71676 40.0203 10.3039 41.3923 11.478C42.7778 12.639 43.4705 14.2552 43.4705 16.3265V26.1224C43.4705 26.5446 43.5781 26.8613 43.7934 27.0724C44.0758 27.3362 44.4054 27.4682 44.782 27.4682C45.1452 27.4682 45.5017 27.3824 45.8514 27.2109ZM36.0051 21.4323C35.6419 21.7093 35.077 22.0326 34.3103 22.402C33.5435 22.7714 33.0324 23.1408 32.7768 23.5102C32.5347 23.8664 32.4136 24.4205 32.4136 25.1725C32.4136 25.8718 32.5683 26.3995 32.8777 26.7557C33.1871 27.0987 33.5704 27.2703 34.0278 27.2703C34.5793 27.2703 35.0433 27.0658 35.42 26.6568C35.8101 26.2478 36.0051 25.6937 36.0051 24.9944V21.4323Z" fill="#0A0302"/>
<path d="M47.8989 31.2876V27.7254C48.8674 27.4879 49.5063 27.1845 49.8157 26.8151C50.1386 26.4325 50.3 25.7398 50.3 24.7372V16.9796C50.3 16.3727 50.1789 15.9505 49.9368 15.713C49.614 15.37 48.9683 15.0864 47.9998 14.8621V11.2999C49.4391 11.2208 50.5757 11.0823 51.4097 10.8844C52.2437 10.6733 53.0171 10.3764 53.73 9.99382H57.5636V11.953C58.5187 11.201 59.3997 10.6667 60.2068 10.35C61.4039 9.86188 62.6078 9.61781 63.8184 9.61781C65.0963 9.61781 66.2195 9.86188 67.188 10.35C68.1564 10.825 68.8828 11.5044 69.3671 12.3884C69.8513 13.2591 70.0934 14.2288 70.0934 15.2975V25.885C70.0934 26.4919 70.2279 26.9338 70.497 27.2109C70.766 27.4879 71.2502 27.6595 71.9497 27.7254V31.2876H60.7112V27.7254C61.33 27.6726 61.7537 27.5077 61.9823 27.2307C62.2245 26.9404 62.3455 26.3599 62.3455 25.4892V17.1181C62.3455 16.2738 62.1572 15.6603 61.7806 15.2777C61.4174 14.8819 60.9331 14.684 60.3278 14.684C59.6418 14.684 59.1038 14.8951 58.7137 15.3173C58.3371 15.7394 58.1487 16.4585 58.1487 17.4743V25.2715C58.1487 26.0763 58.2295 26.637 58.3909 26.9536C58.5657 27.2703 58.8617 27.5275 59.2786 27.7254V31.2876H47.8989Z" fill="#0A0302"/>
<path d="M74.5218 13.556V10.1719C75.7728 10.1851 76.8152 10.0004 77.6492 9.61781C78.4832 9.22202 79.1759 8.51618 79.7274 7.50031C80.2924 6.47124 80.595 5.06617 80.6354 3.2851H85.3366V9.99382H89.7351V13.556H85.3366V24.4403C85.3366 25.5222 85.5182 26.261 85.8814 26.6568C86.258 27.0526 86.8431 27.2505 87.6367 27.2505C88.39 27.2505 89.345 27.0328 90.5018 26.5974V30.3575C89.1298 30.8984 88.0201 31.2546 87.1727 31.4261C86.3252 31.6108 85.4442 31.7032 84.5295 31.7032C83.292 31.7032 82.1688 31.5316 81.16 31.1886C80.1511 30.8324 79.3777 30.3509 78.8397 29.744C78.3151 29.1239 77.9384 28.3653 77.7098 27.4682C77.5618 26.914 77.4878 26.0631 77.4878 24.9153V13.556H74.5218Z" fill="#0A0302"/>
<path d="M96.6453 4.21521C96.6453 2.96186 97.0286 1.94599 97.7954 1.16759C98.5621 0.389198 99.5373 0 100.721 0C101.891 0 102.853 0.376005 103.606 1.12801C104.36 1.88002 104.736 2.8893 104.736 4.15584C104.736 5.48835 104.36 6.54381 103.606 7.3222C102.853 8.1006 101.885 8.4898 100.701 8.4898C99.5037 8.4898 98.5285 8.10719 97.7752 7.34199C97.0219 6.57679 96.6453 5.53453 96.6453 4.21521ZM93.2959 31.2876V27.7254C94.2913 27.699 94.9706 27.5077 95.3338 27.1515C95.697 26.7821 95.8786 26.1027 95.8786 25.1132V17.4348C95.8786 16.5244 95.6633 15.8648 95.2329 15.4558C94.8025 15.0468 94.1568 14.8489 93.2959 14.8621V11.2999C94.52 11.3131 95.6364 11.1878 96.6453 10.9239C97.6676 10.6601 98.4612 10.35 99.0261 9.99382H103.526V25.1923C103.526 26.2214 103.674 26.8877 103.969 27.1911C104.279 27.4945 104.958 27.6726 106.007 27.7254V31.2876H93.2959Z" fill="#0A0302"/>
<path d="M108.095 31.2876V27.7254C109.064 27.4879 109.703 27.1845 110.012 26.8151C110.335 26.4325 110.496 25.7398 110.496 24.7372V16.9796C110.496 16.3727 110.375 15.9505 110.133 15.713C109.81 15.37 109.165 15.0864 108.196 14.8621V11.2999C109.635 11.2208 110.772 11.0823 111.606 10.8844C112.44 10.6733 113.213 10.3764 113.926 9.99382H117.76V11.953C118.715 11.201 119.596 10.6667 120.403 10.35C121.6 9.86188 122.804 9.61781 124.015 9.61781C125.293 9.61781 126.416 9.86188 127.384 10.35C128.353 10.825 129.079 11.5044 129.563 12.3884C130.048 13.2591 130.29 14.2288 130.29 15.2975V25.885C130.29 26.4919 130.424 26.9338 130.693 27.2109C130.962 27.4879 131.447 27.6595 132.146 27.7254V31.2876H120.907V27.7254C121.526 27.6726 121.95 27.5077 122.179 27.2307C122.421 26.9404 122.542 26.3599 122.542 25.4892V17.1181C122.542 16.2738 122.353 15.6603 121.977 15.2777C121.614 14.8819 121.129 14.684 120.524 14.684C119.838 14.684 119.3 14.8951 118.91 15.3173C118.533 15.7394 118.345 16.4585 118.345 17.4743V25.2715C118.345 26.0763 118.426 26.637 118.587 26.9536C118.762 27.2703 119.058 27.5275 119.475 27.7254V31.2876H108.095Z" fill="#0A0302"/>
<path d="M134.92 20.6803C134.92 18.2791 135.397 16.2276 136.352 14.5257C137.307 12.8106 138.632 11.544 140.327 10.726C142.022 9.89487 143.885 9.47928 145.916 9.47928C148.136 9.47928 150.106 9.95424 151.828 10.9041C153.563 11.8409 154.841 13.1668 155.662 14.8819C156.496 16.5838 156.913 18.4638 156.913 20.522C156.913 23.0023 156.442 25.1066 155.5 26.8349C154.559 28.5632 153.22 29.8429 151.485 30.6741C149.75 31.4921 147.894 31.9011 145.916 31.9011C143.804 31.9011 141.874 31.4525 140.125 30.5553C138.39 29.6582 137.086 28.3455 136.211 26.6172C135.35 24.8889 134.92 22.9099 134.92 20.6803ZM143.293 20.6803C143.293 23.8862 143.569 25.9377 144.12 26.8349C144.537 27.4945 145.123 27.8244 145.876 27.8244C146.696 27.8244 147.315 27.4945 147.732 26.8349C148.284 25.9377 148.559 23.7609 148.559 20.3043C148.559 17.349 148.27 15.4228 147.692 14.5257C147.288 13.8792 146.71 13.556 145.957 13.556C145.15 13.556 144.537 13.8792 144.12 14.5257C143.569 15.4096 143.293 17.4611 143.293 20.6803Z" fill="#0A0302"/>
<path d="M197.709 22.2832H201.906C201.933 22.9297 201.946 23.3717 201.946 23.6092C201.946 25.786 201.671 27.4352 201.119 28.5566C200.568 29.6648 199.761 30.5158 198.698 31.1095C197.649 31.7032 196.465 32 195.147 32C194.178 32 193.304 31.8549 192.524 31.5646C191.744 31.2744 190.937 30.806 190.103 30.1596C188.986 30.7664 187.89 31.2216 186.814 31.525C185.751 31.8417 184.635 32 183.464 32C181.756 32 180.176 31.6372 178.723 30.9116C177.27 30.1727 176.16 29.1173 175.394 27.7452C174.64 26.3731 174.264 24.9153 174.264 23.3717C174.264 21.9732 174.54 20.7199 175.091 19.6116C175.656 18.4902 176.389 17.5403 177.29 16.7619C177.976 16.1682 178.851 15.6339 179.913 15.1589C178.824 13.457 178.279 11.7485 178.279 10.0334C178.279 8.13358 178.972 6.60977 180.357 5.46197C181.756 4.31416 183.37 3.74026 185.2 3.74026C187.137 3.74026 188.731 4.33395 189.982 5.52134C191.233 6.69553 191.858 8.15337 191.858 9.89487C191.858 11.1746 191.555 12.3026 190.95 13.2789C190.345 14.2552 189.403 15.1787 188.125 16.0495C188.596 16.9862 189.195 18.0219 189.921 19.1565C190.647 20.2779 191.34 21.241 191.999 22.0458C192.551 21.2938 192.826 20.6407 192.826 20.0866C192.826 19.7831 192.685 19.5127 192.403 19.2752C192.12 19.0245 191.636 18.8662 190.95 18.8002V15.2381H200.292V18.8002C199.619 18.919 199.122 19.0839 198.799 19.295C198.489 19.5061 198.18 19.8425 197.871 20.3043C197.763 20.4758 197.286 21.3795 196.438 23.0155C195.591 24.6382 195.073 25.6145 194.885 25.9443C195.382 26.5644 195.833 26.8745 196.236 26.8745C196.573 26.8745 196.848 26.6964 197.064 26.3401C197.427 25.7069 197.642 24.3546 197.709 22.2832ZM185.886 12.428C186.787 11.8079 187.238 10.9503 187.238 9.85529C187.238 9.18244 187.076 8.66131 186.753 8.2919C186.444 7.92249 186.094 7.73779 185.704 7.73779C185.408 7.73779 185.153 7.84993 184.937 8.07421C184.736 8.2853 184.635 8.57555 184.635 8.94496C184.635 9.93445 185.052 11.0954 185.886 12.428ZM186.995 26.5578C186.108 25.3704 185.348 24.3018 184.715 23.3519C184.097 22.3888 183.357 21.175 182.496 19.7106C181.662 20.357 181.245 21.2938 181.245 22.5207C181.245 23.6026 181.588 24.6448 182.274 25.6475C182.96 26.6502 183.875 27.1515 185.018 27.1515C185.65 27.1515 186.309 26.9536 186.995 26.5578Z" fill="#0A0302"/>
<path d="M237.114 4.13605H240.947L241.29 14.3476L237.073 14.5455C236.737 12.6324 236.112 11.0888 235.197 9.91466C234.511 9.03071 233.664 8.58874 232.655 8.58874C231.363 8.58874 230.314 9.38033 229.507 10.9635C228.714 12.5335 228.317 14.7697 228.317 17.6722C228.317 20.6407 228.74 22.9297 229.588 24.5393C230.435 26.1356 231.525 26.9338 232.856 26.9338C233.556 26.9338 234.235 26.7029 234.894 26.2412C235.553 25.7662 236.085 25.0208 236.488 24.0049C236.905 22.9759 237.215 21.5906 237.416 19.8491L242.239 20.0272C242.266 21.6632 242.097 23.1408 241.734 24.4601C241.385 25.7662 240.9 26.8613 240.282 27.7452C239.663 28.6291 238.896 29.3878 237.981 30.021C237.08 30.6411 236.078 31.1227 234.975 31.4657C233.885 31.8219 232.756 32 231.585 32C229.487 32 227.476 31.4459 225.552 30.3377C223.629 29.2162 222.143 27.5803 221.093 25.4298C220.044 23.2793 219.52 20.8254 219.52 18.068C219.52 15.2975 220.051 12.7908 221.114 10.5479C222.176 8.2919 223.636 6.59658 225.492 5.46197C227.348 4.31416 229.238 3.74026 231.162 3.74026C231.996 3.74026 232.843 3.859 233.704 4.09648C234.578 4.33395 235.607 4.74954 236.791 5.34323L237.114 4.13605Z" fill="#0A0302"/>
<path d="M245.739 20.6803C245.739 18.2791 246.216 16.2276 247.172 14.5257C248.127 12.8106 249.451 11.544 251.146 10.726C252.841 9.89487 254.704 9.47928 256.735 9.47928C258.955 9.47928 260.925 9.95424 262.647 10.9041C264.382 11.8409 265.66 13.1668 266.481 14.8819C267.315 16.5838 267.732 18.4638 267.732 20.522C267.732 23.0023 267.261 25.1066 266.319 26.8349C265.378 28.5632 264.039 29.8429 262.304 30.6741C260.569 31.4921 258.713 31.9011 256.735 31.9011C254.623 31.9011 252.693 31.4525 250.945 30.5553C249.209 29.6582 247.905 28.3455 247.03 26.6172C246.169 24.8889 245.739 22.9099 245.739 20.6803ZM254.112 20.6803C254.112 23.8862 254.388 25.9377 254.94 26.8349C255.357 27.4945 255.942 27.8244 256.695 27.8244C257.515 27.8244 258.134 27.4945 258.551 26.8349C259.103 25.9377 259.378 23.7609 259.378 20.3043C259.378 17.349 259.089 15.4228 258.511 14.5257C258.107 13.8792 257.529 13.556 256.776 13.556C255.969 13.556 255.357 13.8792 254.94 14.5257C254.388 15.4096 254.112 17.4611 254.112 20.6803Z" fill="#0A0302"/>
<path d="M271.252 28.0025C271.252 26.947 271.629 26.0499 272.382 25.3111C273.135 24.5723 274.05 24.2028 275.126 24.2028C276.202 24.2028 277.117 24.5788 277.87 25.3309C278.623 26.0697 279 26.9602 279 28.0025C279 29.0579 278.623 29.9551 277.87 30.6939C277.117 31.4327 276.202 31.8021 275.126 31.8021C274.05 31.8021 273.135 31.4327 272.382 30.6939C271.629 29.9551 271.252 29.0579 271.252 28.0025Z" fill="#0A0302"/>
<path d="M8.83827 52.8875H2.88205L1.64917 55.8501H0L5.0756 44H6.66073L11.7523 55.8501H10.0711L8.83827 52.8875ZM8.27788 51.5333L5.86016 45.7267L3.44244 51.5333H8.27788Z" fill="#969696"/>
<path d="M19.9952 48.2999H15.2879V55.8501H13.7508V46.8779H19.9952V48.2999Z" fill="#969696"/>
<path d="M29.1832 51.4148C29.1832 51.5389 29.1725 51.7025 29.1512 51.9057H22.2663C22.3624 52.6957 22.6879 53.3333 23.243 53.8186C23.8087 54.2926 24.5079 54.5296 25.3405 54.5296C26.3545 54.5296 27.1711 54.1685 27.7902 53.4462L28.6388 54.4958C28.2546 54.9698 27.7742 55.3309 27.1978 55.5792C26.6321 55.8275 25.997 55.9516 25.2925 55.9516C24.3958 55.9516 23.6006 55.7598 22.9068 55.3761C22.2129 54.9811 21.6739 54.4337 21.2896 53.734C20.916 53.0343 20.7292 52.2443 20.7292 51.364C20.7292 50.495 20.9107 49.7106 21.2736 49.0109C21.6472 48.3112 22.1542 47.7694 22.7947 47.3857C23.4458 46.9907 24.177 46.7932 24.9882 46.7932C25.7995 46.7932 26.52 46.9907 27.1498 47.3857C27.7902 47.7694 28.2866 48.3112 28.6388 49.0109C29.0018 49.7106 29.1832 50.5119 29.1832 51.4148ZM24.9882 48.1645C24.2517 48.1645 23.6326 48.4015 23.1309 48.8755C22.6399 49.3495 22.3517 49.9702 22.2663 50.7376H27.7102C27.6248 49.9815 27.3312 49.3664 26.8295 48.8924C26.3385 48.4071 25.7248 48.1645 24.9882 48.1645Z" fill="#969696"/>
<path d="M31.888 46.8779H33.4251V50.6868H38.2605V46.8779H39.7976V55.8501H38.2605V52.0919H33.4251V55.8501H31.888V46.8779Z" fill="#969696"/>
<path d="M49.4311 48.2999H46.3249V55.8501H44.7878V48.2999H41.6816V46.8779H49.4311V48.2999Z" fill="#969696"/>
<path d="M54.6464 55.9516C53.7818 55.9516 53.0079 55.7541 52.3248 55.3591C51.6523 54.9641 51.1239 54.4224 50.7396 53.734C50.3554 53.0343 50.1632 52.2443 50.1632 51.364C50.1632 50.4837 50.3554 49.6993 50.7396 49.0109C51.1239 48.3112 51.6523 47.7694 52.3248 47.3857C53.0079 46.9907 53.7818 46.7932 54.6464 46.7932C55.415 46.7932 56.0981 46.9569 56.6959 47.2842C57.3043 47.6114 57.774 48.0854 58.1049 48.7062L56.936 49.5018C56.6692 49.073 56.3383 48.7513 55.9433 48.5369C55.5484 48.3225 55.1107 48.2152 54.6304 48.2152C54.0753 48.2152 53.5737 48.345 53.1253 48.6046C52.6877 48.8642 52.3408 49.2366 52.0846 49.7219C51.8391 50.1959 51.7163 50.7432 51.7163 51.364C51.7163 51.996 51.8391 52.5546 52.0846 53.0399C52.3408 53.5139 52.6877 53.8807 53.1253 54.1403C53.5737 54.3998 54.0753 54.5296 54.6304 54.5296C55.1107 54.5296 55.5484 54.4224 55.9433 54.208C56.3383 53.9936 56.6692 53.6719 56.936 53.243L58.1049 54.0218C57.774 54.6425 57.3043 55.1221 56.6959 55.4607C56.0981 55.788 55.415 55.9516 54.6464 55.9516Z" fill="#969696"/>
<path d="M66.6302 48.2999H63.524V55.8501H61.9869V48.2999H58.8807V46.8779H66.6302V48.2999Z" fill="#969696"/>
<path d="M74.3022 51.1947C75.4017 51.4881 75.9514 52.216 75.9514 53.3785C75.9514 54.1685 75.6685 54.7779 75.1028 55.2068C74.5478 55.6356 73.7152 55.8501 72.605 55.8501H68.5221V46.8779H72.4609C73.4643 46.8779 74.2489 47.081 74.8146 47.4873C75.3803 47.8823 75.6632 48.4466 75.6632 49.1802C75.6632 49.6542 75.5405 50.0661 75.295 50.416C75.0601 50.7545 74.7292 51.0141 74.3022 51.1947ZM70.0272 50.7376H72.3328C72.9199 50.7376 73.3629 50.6247 73.6618 50.399C73.9713 50.1733 74.1261 49.846 74.1261 49.4172C74.1261 48.5595 73.5284 48.1306 72.3328 48.1306H70.0272V50.7376ZM72.493 54.5973C73.1334 54.5973 73.6138 54.4901 73.934 54.2757C74.2542 54.0613 74.4143 53.7283 74.4143 53.2769C74.4143 52.8142 74.2649 52.47 73.966 52.2443C73.6778 52.0185 73.2188 51.9057 72.589 51.9057H70.0272V54.5973H72.493Z" fill="#969696"/>
<path d="M82.3121 55.9516C81.4688 55.9516 80.7109 55.7541 80.0384 55.3591C79.366 54.9641 78.8376 54.4224 78.4533 53.734C78.0797 53.0343 77.8929 52.2443 77.8929 51.364C77.8929 50.4837 78.0797 49.6993 78.4533 49.0109C78.8376 48.3112 79.366 47.7694 80.0384 47.3857C80.7109 46.9907 81.4688 46.7932 82.3121 46.7932C83.1553 46.7932 83.9079 46.9907 84.5697 47.3857C85.2421 47.7694 85.7652 48.3112 86.1388 49.0109C86.523 49.6993 86.7152 50.4837 86.7152 51.364C86.7152 52.2443 86.523 53.0343 86.1388 53.734C85.7652 54.4224 85.2421 54.9641 84.5697 55.3591C83.9079 55.7541 83.1553 55.9516 82.3121 55.9516ZM82.3121 54.5296C82.8564 54.5296 83.3421 54.3998 83.7691 54.1403C84.2067 53.8694 84.5483 53.497 84.7938 53.023C85.0393 52.5377 85.1621 51.9847 85.1621 51.364C85.1621 50.7432 85.0393 50.1959 84.7938 49.7219C84.5483 49.2366 84.2067 48.8642 83.7691 48.6046C83.3421 48.345 82.8564 48.2152 82.3121 48.2152C81.7677 48.2152 81.2767 48.345 80.839 48.6046C80.412 48.8642 80.0705 49.2366 79.8143 49.7219C79.5688 50.1959 79.446 50.7432 79.446 51.364C79.446 51.9847 79.5688 52.5377 79.8143 53.023C80.0705 53.497 80.412 53.8694 80.839 54.1403C81.2767 54.3998 81.7677 54.5296 82.3121 54.5296Z" fill="#969696"/>
<path d="M101.737 46.8779V55.8501H100.2V48.2999H95.4122V55.8501H93.8751V46.8779H101.737Z" fill="#969696"/>
<path d="M108.666 55.9516C107.823 55.9516 107.065 55.7541 106.392 55.3591C105.72 54.9641 105.191 54.4224 104.807 53.734C104.433 53.0343 104.247 52.2443 104.247 51.364C104.247 50.4837 104.433 49.6993 104.807 49.0109C105.191 48.3112 105.72 47.7694 106.392 47.3857C107.065 46.9907 107.823 46.7932 108.666 46.7932C109.509 46.7932 110.262 46.9907 110.923 47.3857C111.596 47.7694 112.119 48.3112 112.492 49.0109C112.877 49.6993 113.069 50.4837 113.069 51.364C113.069 52.2443 112.877 53.0343 112.492 53.734C112.119 54.4224 111.596 54.9641 110.923 55.3591C110.262 55.7541 109.509 55.9516 108.666 55.9516ZM108.666 54.5296C109.21 54.5296 109.696 54.3998 110.123 54.1403C110.56 53.8694 110.902 53.497 111.148 53.023C111.393 52.5377 111.516 51.9847 111.516 51.364C111.516 50.7432 111.393 50.1959 111.148 49.7219C110.902 49.2366 110.56 48.8642 110.123 48.6046C109.696 48.345 109.21 48.2152 108.666 48.2152C108.121 48.2152 107.63 48.345 107.193 48.6046C106.766 48.8642 106.424 49.2366 106.168 49.7219C105.922 50.1959 105.8 50.7432 105.8 51.364C105.8 51.9847 105.922 52.5377 106.168 53.023C106.424 53.497 106.766 53.8694 107.193 54.1403C107.63 54.3998 108.121 54.5296 108.666 54.5296Z" fill="#969696"/>
<path d="M129.291 54.4281V58H127.834V55.8501H120.229V46.8779H121.766V54.4281H126.409V46.8779H127.946V54.4281H129.291Z" fill="#969696"/>
<path d="M139.273 51.4148C139.273 51.5389 139.263 51.7025 139.241 51.9057H132.356C132.452 52.6957 132.778 53.3333 133.333 53.8186C133.899 54.2926 134.598 54.5296 135.43 54.5296C136.445 54.5296 137.261 54.1685 137.88 53.4462L138.729 54.4958C138.345 54.9698 137.864 55.3309 137.288 55.5792C136.722 55.8275 136.087 55.9516 135.382 55.9516C134.486 55.9516 133.691 55.7598 132.997 55.3761C132.303 54.9811 131.764 54.4337 131.38 53.734C131.006 53.0343 130.819 52.2443 130.819 51.364C130.819 50.495 131.001 49.7106 131.364 49.0109C131.737 48.3112 132.244 47.7694 132.885 47.3857C133.536 46.9907 134.267 46.7932 135.078 46.7932C135.89 46.7932 136.61 46.9907 137.24 47.3857C137.88 47.7694 138.377 48.3112 138.729 49.0109C139.092 49.7106 139.273 50.5119 139.273 51.4148ZM135.078 48.1645C134.342 48.1645 133.723 48.4015 133.221 48.8755C132.73 49.3495 132.442 49.9702 132.356 50.7376H137.8C137.715 49.9815 137.421 49.3664 136.92 48.8924C136.429 48.4071 135.815 48.1645 135.078 48.1645Z" fill="#969696"/>
<path d="M141.978 46.8779H143.515V50.6868H148.351V46.8779H149.888V55.8501H148.351V52.0919H143.515V55.8501H141.978V46.8779Z" fill="#969696"/>
<path d="M160.866 51.4148C160.866 51.5389 160.855 51.7025 160.834 51.9057H153.949C154.045 52.6957 154.371 53.3333 154.926 53.8186C155.492 54.2926 156.191 54.5296 157.023 54.5296C158.037 54.5296 158.854 54.1685 159.473 53.4462L160.322 54.4958C159.937 54.9698 159.457 55.3309 158.881 55.5792C158.315 55.8275 157.68 55.9516 156.975 55.9516C156.079 55.9516 155.283 55.7598 154.59 55.3761C153.896 54.9811 153.357 54.4337 152.972 53.734C152.599 53.0343 152.412 52.2443 152.412 51.364C152.412 50.495 152.594 49.7106 152.956 49.0109C153.33 48.3112 153.837 47.7694 154.478 47.3857C155.129 46.9907 155.86 46.7932 156.671 46.7932C157.482 46.7932 158.203 46.9907 158.833 47.3857C159.473 47.7694 159.969 48.3112 160.322 49.0109C160.685 49.7106 160.866 50.5119 160.866 51.4148ZM156.671 48.1645C155.935 48.1645 155.315 48.4015 154.814 48.8755C154.323 49.3495 154.035 49.9702 153.949 50.7376H159.393C159.308 49.9815 159.014 49.3664 158.512 48.8924C158.021 48.4071 157.408 48.1645 156.671 48.1645Z" fill="#969696"/>
<path d="M171.89 55.9516C171.025 55.9516 170.251 55.7541 169.568 55.3591C168.896 54.9641 168.367 54.4224 167.983 53.734C167.599 53.0343 167.406 52.2443 167.406 51.364C167.406 50.4837 167.599 49.6993 167.983 49.0109C168.367 48.3112 168.896 47.7694 169.568 47.3857C170.251 46.9907 171.025 46.7932 171.89 46.7932C172.658 46.7932 173.341 46.9569 173.939 47.2842C174.548 47.6114 175.017 48.0854 175.348 48.7062L174.179 49.5018C173.912 49.073 173.581 48.7513 173.187 48.5369C172.792 48.3225 172.354 48.2152 171.874 48.2152C171.319 48.2152 170.817 48.345 170.369 48.6046C169.931 48.8642 169.584 49.2366 169.328 49.7219C169.082 50.1959 168.96 50.7432 168.96 51.364C168.96 51.996 169.082 52.5546 169.328 53.0399C169.584 53.5139 169.931 53.8807 170.369 54.1403C170.817 54.3998 171.319 54.5296 171.874 54.5296C172.354 54.5296 172.792 54.4224 173.187 54.208C173.581 53.9936 173.912 53.6719 174.179 53.243L175.348 54.0218C175.017 54.6425 174.548 55.1221 173.939 55.4607C173.341 55.788 172.658 55.9516 171.89 55.9516Z" fill="#969696"/>
<path d="M185.52 46.8779V55.8501H183.983V48.2999H179.195V55.8501H177.658V46.8779H185.52Z" fill="#969696"/>
<path d="M196.484 51.4148C196.484 51.5389 196.473 51.7025 196.452 51.9057H189.567C189.663 52.6957 189.989 53.3333 190.544 53.8186C191.109 54.2926 191.809 54.5296 192.641 54.5296C193.655 54.5296 194.472 54.1685 195.091 53.4462L195.939 54.4958C195.555 54.9698 195.075 55.3309 194.498 55.5792C193.933 55.8275 193.298 55.9516 192.593 55.9516C191.696 55.9516 190.901 55.7598 190.207 55.3761C189.514 54.9811 188.975 54.4337 188.59 53.734C188.217 53.0343 188.03 52.2443 188.03 51.364C188.03 50.495 188.211 49.7106 188.574 49.0109C188.948 48.3112 189.455 47.7694 190.095 47.3857C190.746 46.9907 191.478 46.7932 192.289 46.7932C193.1 46.7932 193.821 46.9907 194.45 47.3857C195.091 47.7694 195.587 48.3112 195.939 49.0109C196.302 49.7106 196.484 50.5119 196.484 51.4148ZM192.289 48.1645C191.552 48.1645 190.933 48.4015 190.432 48.8755C189.941 49.3495 189.652 49.9702 189.567 50.7376H195.011C194.925 49.9815 194.632 49.3664 194.13 48.8924C193.639 48.4071 193.025 48.1645 192.289 48.1645Z" fill="#969696"/>
<path d="M208.251 54.4281V58H206.794V55.8501H199.189V46.8779H200.726V54.4281H205.369V46.8779H206.906V54.4281H208.251Z" fill="#969696"/>
<path d="M210.564 46.8779H212.101V53.4123L217.304 46.8779H218.697V55.8501H217.16V49.3156L211.973 55.8501H210.564V46.8779Z" fill="#969696"/>
<path d="M225.027 46.7932C226.201 46.7932 227.098 47.0979 227.717 47.7074C228.347 48.3168 228.662 49.2253 228.662 50.4329V55.8501H227.205V54.6651C226.949 55.0826 226.58 55.4043 226.1 55.63C225.63 55.8444 225.07 55.9516 224.419 55.9516C223.469 55.9516 222.706 55.709 222.129 55.2237C221.563 54.7384 221.281 54.1008 221.281 53.3108C221.281 52.5208 221.553 51.8888 222.097 51.4148C222.642 50.9295 223.506 50.6868 224.691 50.6868H227.125V50.3652C227.125 49.6655 226.933 49.1294 226.548 48.757C226.164 48.3845 225.598 48.1983 224.851 48.1983C224.349 48.1983 223.858 48.2886 223.378 48.4692C222.898 48.6385 222.492 48.8698 222.161 49.1632L221.521 47.9444C221.958 47.5719 222.481 47.2898 223.09 47.0979C223.698 46.8948 224.344 46.7932 225.027 46.7932ZM224.675 54.6989C225.262 54.6989 225.769 54.5635 226.196 54.2926C226.623 54.0105 226.933 53.6155 227.125 53.1076V51.8549H224.755C223.453 51.8549 222.802 52.3176 222.802 53.243C222.802 53.6945 222.967 54.05 223.298 54.3096C223.629 54.5691 224.088 54.6989 224.675 54.6989Z" fill="#969696"/>
<path d="M239.035 46.8779V55.8501H237.498V48.2999H233.847L233.751 50.2975C233.698 51.505 233.597 52.5151 233.447 53.3277C233.298 54.129 233.052 54.7723 232.711 55.2576C232.369 55.7428 231.894 55.9855 231.286 55.9855C231.008 55.9855 230.693 55.9347 230.341 55.8331L230.437 54.4619C230.576 54.4958 230.704 54.5127 230.821 54.5127C231.248 54.5127 231.568 54.3152 231.782 53.9202C231.995 53.5252 232.134 53.0568 232.198 52.5151C232.262 51.9734 232.321 51.2003 232.374 50.1959L232.518 46.8779H239.035Z" fill="#969696"/>
<path d="M242.327 46.8779H243.864V53.4123L249.068 46.8779H250.461V55.8501H248.924V49.3156L243.736 55.8501H242.327V46.8779Z" fill="#969696"/>
<path d="M257.464 55.9516C256.599 55.9516 255.825 55.7541 255.142 55.3591C254.469 54.9641 253.941 54.4224 253.557 53.734C253.172 53.0343 252.98 52.2443 252.98 51.364C252.98 50.4837 253.172 49.6993 253.557 49.0109C253.941 48.3112 254.469 47.7694 255.142 47.3857C255.825 46.9907 256.599 46.7932 257.464 46.7932C258.232 46.7932 258.915 46.9569 259.513 47.2842C260.121 47.6114 260.591 48.0854 260.922 48.7062L259.753 49.5018C259.486 49.073 259.155 48.7513 258.76 48.5369C258.366 48.3225 257.928 48.2152 257.448 48.2152C256.892 48.2152 256.391 48.345 255.942 48.6046C255.505 48.8642 255.158 49.2366 254.902 49.7219C254.656 50.1959 254.533 50.7432 254.533 51.364C254.533 51.996 254.656 52.5546 254.902 53.0399C255.158 53.5139 255.505 53.8807 255.942 54.1403C256.391 54.3998 256.892 54.5296 257.448 54.5296C257.928 54.5296 258.366 54.4224 258.76 54.208C259.155 53.9936 259.486 53.6719 259.753 53.243L260.922 54.0218C260.591 54.6425 260.121 55.1221 259.513 55.4607C258.915 55.788 258.232 55.9516 257.464 55.9516Z" fill="#969696"/>
<path d="M269.447 48.2999H266.341V55.8501H264.804V48.2999H261.698V46.8779H269.447V48.2999Z" fill="#969696"/>
<path d="M274.365 46.7932C275.54 46.7932 276.436 47.0979 277.055 47.7074C277.685 48.3168 278 49.2253 278 50.4329V55.8501H276.543V54.6651C276.287 55.0826 275.919 55.4043 275.438 55.63C274.969 55.8444 274.408 55.9516 273.757 55.9516C272.807 55.9516 272.044 55.709 271.467 55.2237C270.902 54.7384 270.619 54.1008 270.619 53.3108C270.619 52.5208 270.891 51.8888 271.435 51.4148C271.98 50.9295 272.844 50.6868 274.029 50.6868H276.463V50.3652C276.463 49.6655 276.271 49.1294 275.886 48.757C275.502 48.3845 274.936 48.1983 274.189 48.1983C273.688 48.1983 273.197 48.2886 272.716 48.4692C272.236 48.6385 271.83 48.8698 271.499 49.1632L270.859 47.9444C271.297 47.5719 271.82 47.2898 272.428 47.0979C273.036 46.8948 273.682 46.7932 274.365 46.7932ZM274.013 54.6989C274.6 54.6989 275.107 54.5635 275.534 54.2926C275.961 54.0105 276.271 53.6155 276.463 53.1076V51.8549H274.093C272.791 51.8549 272.14 52.3176 272.14 53.243C272.14 53.6945 272.305 54.05 272.636 54.3096C272.967 54.5691 273.426 54.6989 274.013 54.6989Z" fill="#969696"/>
</svg>
